<?xml version="1.0" encoding="UTF-8" standalone="no"?>
<!DOCTYPE svg PUBLIC "-//W3C//DTD SVG 1.1//EN"
 "http://www.w3.org/Graphics/SVG/1.1/DTD/svg11.dtd">
<!-- Generated by graphviz version 2.43.0 (0)
 -->
<!-- Title: TractorWatchdog/TractorWatchdog.ino Pages: 1 -->
<svg width="494pt" height="252pt"
 viewBox="0.00 0.00 493.50 252.00" xmlns="http://www.w3.org/2000/svg" xmlns:xlink="http://www.w3.org/1999/xlink">
<g id="graph0" class="graph" transform="scale(1 1) rotate(0) translate(4 248)">
<title>TractorWatchdog/TractorWatchdog.ino</title>
<polygon fill="white" stroke="transparent" points="-4,4 -4,-248 489.5,-248 489.5,4 -4,4"/>
<!-- Node1 -->
<g id="node1" class="node">
<title>Node1</title>
<g id="a_node1"><a xlink:title="Main code for the Tractor Enginge Watchdog.">
<polygon fill="#bfbfbf" stroke="black" points="126.5,-224.5 126.5,-243.5 326.5,-243.5 326.5,-224.5 126.5,-224.5"/>
<text text-anchor="middle" x="226.5" y="-231.5" font-family="Helvetica,sans-Serif" font-size="10.00">TractorWatchdog/TractorWatchdog.ino</text>
</a>
</g>
</g>
<!-- Node2 -->
<g id="node2" class="node">
<title>Node2</title>
<g id="a_node2"><a xlink:href="defines_8h.html" target="_top" xlink:title="Pin and other definitions.">
<polygon fill="white" stroke="black" points="172,-56.5 172,-75.5 233,-75.5 233,-56.5 172,-56.5"/>
<text text-anchor="middle" x="202.5" y="-63.5" font-family="Helvetica,sans-Serif" font-size="10.00">defines.h</text>
</a>
</g>
</g>
<!-- Node1&#45;&gt;Node2 -->
<g id="edge1" class="edge">
<title>Node1&#45;&gt;Node2</title>
<path fill="none" stroke="midnightblue" d="M166.82,-224.43C145.07,-218.1 122.62,-207.11 109.5,-188 94.22,-165.76 122.47,-125.13 133.5,-112 144.56,-98.83 160.46,-88.11 174.2,-80.43"/>
<polygon fill="midnightblue" stroke="midnightblue" points="176.1,-83.39 183.29,-75.62 172.82,-77.21 176.1,-83.39"/>
</g>
<!-- Node8 -->
<g id="node8" class="node">
<title>Node8</title>
<g id="a_node8"><a xlink:href="display_8h.html" target="_top" xlink:title="Header file for the display classes.">
<polygon fill="white" stroke="black" points="118,-168.5 118,-187.5 177,-187.5 177,-168.5 118,-168.5"/>
<text text-anchor="middle" x="147.5" y="-175.5" font-family="Helvetica,sans-Serif" font-size="10.00">display.h</text>
</a>
</g>
</g>
<!-- Node1&#45;&gt;Node8 -->
<g id="edge7" class="edge">
<title>Node1&#45;&gt;Node8</title>
<path fill="none" stroke="midnightblue" d="M213.81,-224.32C201.6,-215.98 182.92,-203.21 168.5,-193.35"/>
<polygon fill="midnightblue" stroke="midnightblue" points="170.39,-190.41 160.16,-187.65 166.44,-196.19 170.39,-190.41"/>
</g>
<!-- Node10 -->
<g id="node10" class="node">
<title>Node10</title>
<g id="a_node10"><a xlink:href="button_8h.html" target="_top" xlink:title="File that manages input from the button.">
<polygon fill="white" stroke="black" points="258,-112.5 258,-131.5 315,-131.5 315,-112.5 258,-112.5"/>
<text text-anchor="middle" x="286.5" y="-119.5" font-family="Helvetica,sans-Serif" font-size="10.00">button.h</text>
</a>
</g>
</g>
<!-- Node1&#45;&gt;Node10 -->
<g id="edge11" class="edge">
<title>Node1&#45;&gt;Node10</title>
<path fill="none" stroke="midnightblue" d="M236.69,-224.35C245.97,-215.94 259.43,-202.38 267.5,-188 275.59,-173.58 280.53,-155.39 283.33,-141.92"/>
<polygon fill="midnightblue" stroke="midnightblue" points="286.81,-142.38 285.21,-131.91 279.93,-141.09 286.81,-142.38"/>
</g>
<!-- Node11 -->
<g id="node11" class="node">
<title>Node11</title>
<g id="a_node11"><a xlink:href="sensors_8h.html" target="_top" xlink:title="File that contains code for sensors.">
<polygon fill="white" stroke="black" points="195,-168.5 195,-187.5 258,-187.5 258,-168.5 195,-168.5"/>
<text text-anchor="middle" x="226.5" y="-175.5" font-family="Helvetica,sans-Serif" font-size="10.00">sensors.h</text>
</a>
</g>
</g>
<!-- Node1&#45;&gt;Node11 -->
<g id="edge13" class="edge">
<title>Node1&#45;&gt;Node11</title>
<path fill="none" stroke="midnightblue" d="M226.5,-224.08C226.5,-217.01 226.5,-206.86 226.5,-197.99"/>
<polygon fill="midnightblue" stroke="midnightblue" points="230,-197.75 226.5,-187.75 223,-197.75 230,-197.75"/>
</g>
<!-- Node12 -->
<g id="node12" class="node">
<title>Node12</title>
<g id="a_node12"><a xlink:href="motor_8h.html" target="_top" xlink:title="File for the validation and engine shutdown components.">
<polygon fill="white" stroke="black" points="333.5,-112.5 333.5,-131.5 387.5,-131.5 387.5,-112.5 333.5,-112.5"/>
<text text-anchor="middle" x="360.5" y="-119.5" font-family="Helvetica,sans-Serif" font-size="10.00">motor.h</text>
</a>
</g>
</g>
<!-- Node1&#45;&gt;Node12 -->
<g id="edge16" class="edge">
<title>Node1&#45;&gt;Node12</title>
<path fill="none" stroke="midnightblue" d="M238.42,-224.25C250.46,-215.33 269.51,-201.01 285.5,-188 305.8,-171.49 328.41,-151.69 343.45,-138.32"/>
<polygon fill="midnightblue" stroke="midnightblue" points="345.83,-140.88 350.96,-131.61 341.17,-135.66 345.83,-140.88"/>
</g>
<!-- Node3 -->
<g id="node3" class="node">
<title>Node3</title>
<g id="a_node3"><a xlink:title=" ">
<polygon fill="white" stroke="#bfbfbf" points="0,-0.5 0,-19.5 63,-19.5 63,-0.5 0,-0.5"/>
<text text-anchor="middle" x="31.5" y="-7.5" font-family="Helvetica,sans-Serif" font-size="10.00">Arduino.h</text>
</a>
</g>
</g>
<!-- Node2&#45;&gt;Node3 -->
<g id="edge2" class="edge">
<title>Node2&#45;&gt;Node3</title>
<path fill="none" stroke="midnightblue" d="M175.4,-56.44C146.51,-47.32 100.58,-32.81 68.39,-22.65"/>
<polygon fill="midnightblue" stroke="midnightblue" points="69.06,-19.19 58.47,-19.52 66.95,-25.87 69.06,-19.19"/>
</g>
<!-- Node4 -->
<g id="node4" class="node">
<title>Node4</title>
<g id="a_node4"><a xlink:title=" ">
<polygon fill="white" stroke="#bfbfbf" points="81.5,-0.5 81.5,-19.5 129.5,-19.5 129.5,-0.5 81.5,-0.5"/>
<text text-anchor="middle" x="105.5" y="-7.5" font-family="Helvetica,sans-Serif" font-size="10.00">Wire.h</text>
</a>
</g>
</g>
<!-- Node2&#45;&gt;Node4 -->
<g id="edge3" class="edge">
<title>Node2&#45;&gt;Node4</title>
<path fill="none" stroke="midnightblue" d="M186.92,-56.32C171.5,-47.74 147.69,-34.49 129.79,-24.52"/>
<polygon fill="midnightblue" stroke="midnightblue" points="131.49,-21.46 121.05,-19.65 128.08,-27.58 131.49,-21.46"/>
</g>
<!-- Node5 -->
<g id="node5" class="node">
<title>Node5</title>
<g id="a_node5"><a xlink:title=" ">
<polygon fill="white" stroke="#bfbfbf" points="147.5,-0.5 147.5,-19.5 257.5,-19.5 257.5,-0.5 147.5,-0.5"/>
<text text-anchor="middle" x="202.5" y="-7.5" font-family="Helvetica,sans-Serif" font-size="10.00">LiquidCrystal_I2C.h</text>
</a>
</g>
</g>
<!-- Node2&#45;&gt;Node5 -->
<g id="edge4" class="edge">
<title>Node2&#45;&gt;Node5</title>
<path fill="none" stroke="midnightblue" d="M202.5,-56.08C202.5,-49.01 202.5,-38.86 202.5,-29.99"/>
<polygon fill="midnightblue" stroke="midnightblue" points="206,-29.75 202.5,-19.75 199,-29.75 206,-29.75"/>
</g>
<!-- Node6 -->
<g id="node6" class="node">
<title>Node6</title>
<g id="a_node6"><a xlink:title=" ">
<polygon fill="white" stroke="#bfbfbf" points="275.5,-0.5 275.5,-19.5 349.5,-19.5 349.5,-0.5 275.5,-0.5"/>
<text text-anchor="middle" x="312.5" y="-7.5" font-family="Helvetica,sans-Serif" font-size="10.00">LCDGraph.h</text>
</a>
</g>
</g>
<!-- Node2&#45;&gt;Node6 -->
<g id="edge5" class="edge">
<title>Node2&#45;&gt;Node6</title>
<path fill="none" stroke="midnightblue" d="M220.17,-56.32C237.89,-47.62 265.4,-34.12 285.79,-24.11"/>
<polygon fill="midnightblue" stroke="midnightblue" points="287.44,-27.2 294.87,-19.65 284.35,-20.92 287.44,-27.2"/>
</g>
<!-- Node7 -->
<g id="node7" class="node">
<title>Node7</title>
<g id="a_node7"><a xlink:title=" ">
<polygon fill="white" stroke="#bfbfbf" points="367.5,-0.5 367.5,-19.5 485.5,-19.5 485.5,-0.5 367.5,-0.5"/>
<text text-anchor="middle" x="426.5" y="-7.5" font-family="Helvetica,sans-Serif" font-size="10.00">EEPROMWearLevel.h</text>
</a>
</g>
</g>
<!-- Node2&#45;&gt;Node7 -->
<g id="edge6" class="edge">
<title>Node2&#45;&gt;Node7</title>
<path fill="none" stroke="midnightblue" d="M233.18,-57.6C271.42,-48.39 337.1,-32.55 381.15,-21.93"/>
<polygon fill="midnightblue" stroke="midnightblue" points="382.13,-25.3 391.03,-19.55 380.49,-18.49 382.13,-25.3"/>
</g>
<!-- Node8&#45;&gt;Node2 -->
<g id="edge8" class="edge">
<title>Node8&#45;&gt;Node2</title>
<path fill="none" stroke="midnightblue" d="M144.18,-168.46C139.7,-155.5 133.29,-130.42 142.5,-112 149.23,-98.54 162.11,-88.07 174.21,-80.62"/>
<polygon fill="midnightblue" stroke="midnightblue" points="176.23,-83.5 183.2,-75.52 172.78,-77.41 176.23,-83.5"/>
</g>
<!-- Node9 -->
<g id="node9" class="node">
<title>Node9</title>
<g id="a_node9"><a xlink:href="state_8h.html" target="_top" xlink:title="A class for the current system state.">
<polygon fill="white" stroke="black" points="151.5,-112.5 151.5,-131.5 201.5,-131.5 201.5,-112.5 151.5,-112.5"/>
<text text-anchor="middle" x="176.5" y="-119.5" font-family="Helvetica,sans-Serif" font-size="10.00">state.h</text>
</a>
</g>
</g>
<!-- Node8&#45;&gt;Node9 -->
<g id="edge9" class="edge">
<title>Node8&#45;&gt;Node9</title>
<path fill="none" stroke="midnightblue" d="M152.29,-168.08C156.26,-160.69 162.03,-149.95 166.93,-140.81"/>
<polygon fill="midnightblue" stroke="midnightblue" points="170.15,-142.22 171.8,-131.75 163.99,-138.91 170.15,-142.22"/>
</g>
<!-- Node9&#45;&gt;Node2 -->
<g id="edge10" class="edge">
<title>Node9&#45;&gt;Node2</title>
<path fill="none" stroke="midnightblue" d="M180.79,-112.08C184.35,-104.69 189.52,-93.95 193.92,-84.81"/>
<polygon fill="midnightblue" stroke="midnightblue" points="197.1,-86.28 198.29,-75.75 190.79,-83.24 197.1,-86.28"/>
</g>
<!-- Node10&#45;&gt;Node2 -->
<g id="edge12" class="edge">
<title>Node10&#45;&gt;Node2</title>
<path fill="none" stroke="midnightblue" d="M273,-112.32C259.9,-103.9 239.79,-90.97 224.39,-81.07"/>
<polygon fill="midnightblue" stroke="midnightblue" points="226.27,-78.12 215.96,-75.65 222.48,-84.01 226.27,-78.12"/>
</g>
<!-- Node11&#45;&gt;Node2 -->
<g id="edge14" class="edge">
<title>Node11&#45;&gt;Node2</title>
<path fill="none" stroke="midnightblue" d="M224.62,-168.37C220.74,-150.62 211.81,-109.67 206.56,-85.6"/>
<polygon fill="midnightblue" stroke="midnightblue" points="209.93,-84.62 204.37,-75.59 203.09,-86.11 209.93,-84.62"/>
</g>
<!-- Node11&#45;&gt;Node9 -->
<g id="edge15" class="edge">
<title>Node11&#45;&gt;Node9</title>
<path fill="none" stroke="midnightblue" d="M218.24,-168.08C211.04,-160.3 200.39,-148.8 191.65,-139.37"/>
<polygon fill="midnightblue" stroke="midnightblue" points="193.97,-136.71 184.6,-131.75 188.83,-141.47 193.97,-136.71"/>
</g>
<!-- Node12&#45;&gt;Node2 -->
<g id="edge17" class="edge">
<title>Node12&#45;&gt;Node2</title>
<path fill="none" stroke="midnightblue" d="M335.46,-112.44C308.88,-103.36 266.69,-88.94 236.98,-78.78"/>
<polygon fill="midnightblue" stroke="midnightblue" points="238.01,-75.44 227.42,-75.52 235.75,-82.06 238.01,-75.44"/>
</g>
</g>
</svg>
