<?xml version="1.0" encoding="UTF-8" standalone="no"?>
<!DOCTYPE svg PUBLIC "-//W3C//DTD SVG 1.1//EN"
 "http://www.w3.org/Graphics/SVG/1.1/DTD/svg11.dtd">
<!-- Generated by graphviz version 2.43.0 (0)
 -->
<!-- Title: TractorWatchdog/button.h Pages: 1 -->
<svg width="378pt" height="84pt"
 viewBox="0.00 0.00 378.00 84.00" xmlns="http://www.w3.org/2000/svg" xmlns:xlink="http://www.w3.org/1999/xlink">
<g id="graph0" class="graph" transform="scale(1 1) rotate(0) translate(4 80)">
<title>TractorWatchdog/button.h</title>
<polygon fill="white" stroke="transparent" points="-4,4 -4,-80 374,-80 374,4 -4,4"/>
<!-- Node1 -->
<g id="node1" class="node">
<title>Node1</title>
<g id="a_node1"><a xlink:title="File that manages input from the button.">
<polygon fill="#bfbfbf" stroke="black" points="102.5,-56.5 102.5,-75.5 243.5,-75.5 243.5,-56.5 102.5,-56.5"/>
<text text-anchor="middle" x="173" y="-63.5" font-family="Helvetica,sans-Serif" font-size="10.00">TractorWatchdog/button.h</text>
</a>
</g>
</g>
<!-- Node2 -->
<g id="node2" class="node">
<title>Node2</title>
<g id="a_node2"><a xlink:href="button_8cpp.html" target="_top" xlink:title="File that manages input from the button.">
<polygon fill="white" stroke="black" points="0,-0.5 0,-19.5 152,-19.5 152,-0.5 0,-0.5"/>
<text text-anchor="middle" x="76" y="-7.5" font-family="Helvetica,sans-Serif" font-size="10.00">TractorWatchdog/button.cpp</text>
</a>
</g>
</g>
<!-- Node1&#45;&gt;Node2 -->
<g id="edge1" class="edge">
<title>Node1&#45;&gt;Node2</title>
<path fill="none" stroke="midnightblue" d="M148.66,-51.45C130.76,-41.48 106.95,-28.23 91.55,-19.65"/>
<polygon fill="midnightblue" stroke="midnightblue" points="146.98,-54.52 157.42,-56.32 150.38,-48.4 146.98,-54.52"/>
</g>
<!-- Node3 -->
<g id="node3" class="node">
<title>Node3</title>
<g id="a_node3"><a xlink:href="_tractor_watchdog_8ino.html" target="_top" xlink:title="Main code for the Tractor Enginge Watchdog.">
<polygon fill="white" stroke="black" points="170,-0.5 170,-19.5 370,-19.5 370,-0.5 170,-0.5"/>
<text text-anchor="middle" x="270" y="-7.5" font-family="Helvetica,sans-Serif" font-size="10.00">TractorWatchdog/TractorWatchdog.ino</text>
</a>
</g>
</g>
<!-- Node1&#45;&gt;Node3 -->
<g id="edge2" class="edge">
<title>Node1&#45;&gt;Node3</title>
<path fill="none" stroke="midnightblue" d="M197.34,-51.45C215.24,-41.48 239.05,-28.23 254.45,-19.65"/>
<polygon fill="midnightblue" stroke="midnightblue" points="195.62,-48.4 188.58,-56.32 199.02,-54.52 195.62,-48.4"/>
</g>
</g>
</svg>
