<?xml version="1.0" encoding="UTF-8" standalone="no"?>
<!DOCTYPE svg PUBLIC "-//W3C//DTD SVG 1.1//EN"
 "http://www.w3.org/Graphics/SVG/1.1/DTD/svg11.dtd">
<!-- Generated by graphviz version 2.43.0 (0)
 -->
<!-- Title: Graph Pages: 1 -->
<svg width="432pt" height="106pt"
 viewBox="0.00 0.00 432.00 106.00" xmlns="http://www.w3.org/2000/svg" xmlns:xlink="http://www.w3.org/1999/xlink">
<g id="graph0" class="graph" transform="scale(1 1) rotate(0) translate(4 102)">
<title>Graph</title>
<polygon fill="white" stroke="transparent" points="-4,4 -4,-102 428,-102 428,4 -4,4"/>
<!-- Node1 -->
<g id="node1" class="node">
<title>Node1</title>
<g id="a_node1"><a xlink:title="Base class for displays with a graph.">
<polygon fill="#bfbfbf" stroke="black" points="176,-0.5 176,-19.5 222,-19.5 222,-0.5 176,-0.5"/>
<text text-anchor="middle" x="199" y="-7.5" font-family="Helvetica,sans-Serif" font-size="10.00">Graph</text>
</a>
</g>
</g>
<!-- Node2 -->
<g id="node2" class="node">
<title>Node2</title>
<g id="a_node2"><a xlink:title=" ">
<polygon fill="white" stroke="#bfbfbf" points="0,-67.5 0,-97.5 116,-97.5 116,-67.5 0,-67.5"/>
<text text-anchor="start" x="8" y="-85.5" font-family="Helvetica,sans-Serif" font-size="10.00">LCDGraph&lt; int16_t,</text>
<text text-anchor="middle" x="58" y="-74.5" font-family="Helvetica,sans-Serif" font-size="10.00"> LiquidCrystal_I2C &gt;</text>
</a>
</g>
</g>
<!-- Node2&#45;&gt;Node1 -->
<g id="edge1" class="edge">
<title>Node2&#45;&gt;Node1</title>
<path fill="none" stroke="#9a32cd" stroke-dasharray="5,2" d="M85.01,-61.6C96.63,-53.6 110.6,-44.71 124,-38 140.71,-29.64 160.65,-22.59 175.77,-17.79"/>
<polygon fill="#9a32cd" stroke="#9a32cd" points="82.8,-58.88 76.63,-67.5 86.82,-64.61 82.8,-58.88"/>
<text text-anchor="middle" x="139.5" y="-41" font-family="Helvetica,sans-Serif" font-size="10.00"> graph</text>
</g>
<!-- Node3 -->
<g id="node3" class="node">
<title>Node3</title>
<g id="a_node3"><a xlink:title=" ">
<polygon fill="white" stroke="#bfbfbf" points="134,-73 134,-92 190,-92 190,-73 134,-73"/>
<text text-anchor="middle" x="162" y="-80" font-family="Helvetica,sans-Serif" font-size="10.00">uint16_t</text>
</a>
</g>
</g>
<!-- Node3&#45;&gt;Node1 -->
<g id="edge2" class="edge">
<title>Node3&#45;&gt;Node1</title>
<path fill="none" stroke="#9a32cd" stroke-dasharray="5,2" d="M158.93,-63C158.45,-54.91 159.1,-45.57 163,-38 167,-30.22 174.39,-24.08 181.44,-19.63"/>
<polygon fill="#9a32cd" stroke="#9a32cd" points="155.46,-63.43 160.1,-72.95 162.41,-62.61 155.46,-63.43"/>
<text text-anchor="middle" x="189" y="-41" font-family="Helvetica,sans-Serif" font-size="10.00"> lastPoints</text>
</g>
<!-- Node4 -->
<g id="node4" class="node">
<title>Node4</title>
<g id="a_node4"><a xlink:title=" ">
<polygon fill="white" stroke="#bfbfbf" points="212,-73 212,-92 262,-92 262,-73 212,-73"/>
<text text-anchor="middle" x="237" y="-80" font-family="Helvetica,sans-Serif" font-size="10.00">int32_t</text>
</a>
</g>
</g>
<!-- Node4&#45;&gt;Node1 -->
<g id="edge3" class="edge">
<title>Node4&#45;&gt;Node1</title>
<path fill="none" stroke="#9a32cd" stroke-dasharray="5,2" d="M228.33,-63.69C224.38,-55.76 219.58,-46.35 215,-38 211.65,-31.88 207.65,-25.13 204.48,-19.91"/>
<polygon fill="#9a32cd" stroke="#9a32cd" points="225.23,-65.32 232.79,-72.75 231.51,-62.23 225.23,-65.32"/>
<text text-anchor="middle" x="274" y="-41" font-family="Helvetica,sans-Serif" font-size="10.00"> lastPointAccumulator</text>
</g>
<!-- Node5 -->
<g id="node5" class="node">
<title>Node5</title>
<g id="a_node5"><a xlink:title=" ">
<polygon fill="white" stroke="#bfbfbf" points="312,-73 312,-92 424,-92 424,-73 312,-73"/>
<text text-anchor="middle" x="368" y="-80" font-family="Helvetica,sans-Serif" font-size="10.00">LiquidCrystal_I2C &amp;</text>
</a>
</g>
</g>
<!-- Node5&#45;&gt;Node1 -->
<g id="edge4" class="edge">
<title>Node5&#45;&gt;Node1</title>
<path fill="none" stroke="#9a32cd" stroke-dasharray="5,2" d="M358,-64.48C351.69,-55.24 342.72,-44.42 332,-38 297.64,-17.41 250.27,-12.26 222.31,-11.12"/>
<polygon fill="#9a32cd" stroke="#9a32cd" points="355.07,-66.4 363.38,-72.97 360.98,-62.65 355.07,-66.4"/>
<text text-anchor="middle" x="354" y="-41" font-family="Helvetica,sans-Serif" font-size="10.00"> lcd</text>
</g>
</g>
</svg>
