<?xml version="1.0" encoding="UTF-8" standalone="no"?>
<!DOCTYPE svg PUBLIC "-//W3C//DTD SVG 1.1//EN"
 "http://www.w3.org/Graphics/SVG/1.1/DTD/svg11.dtd">
<!-- Generated by graphviz version 2.43.0 (0)
 -->
<!-- Title: Display Pages: 1 -->
<svg width="176pt" height="95pt"
 viewBox="0.00 0.00 176.00 95.00" xmlns="http://www.w3.org/2000/svg" xmlns:xlink="http://www.w3.org/1999/xlink">
<g id="graph0" class="graph" transform="scale(1 1) rotate(0) translate(4 91)">
<title>Display</title>
<polygon fill="white" stroke="transparent" points="-4,4 -4,-91 172,-91 172,4 -4,4"/>
<!-- Node1 -->
<g id="node1" class="node">
<title>Node1</title>
<g id="a_node1"><a xlink:title="Base class for each window that is displayed on the LCD.">
<polygon fill="#bfbfbf" stroke="black" points="38.5,-0.5 38.5,-19.5 91.5,-19.5 91.5,-0.5 38.5,-0.5"/>
<text text-anchor="middle" x="65" y="-7.5" font-family="Helvetica,sans-Serif" font-size="10.00">Display</text>
</a>
</g>
</g>
<!-- Node2 -->
<g id="node2" class="node">
<title>Node2</title>
<g id="a_node2"><a xlink:title=" ">
<polygon fill="white" stroke="#bfbfbf" points="0,-67.5 0,-86.5 38,-86.5 38,-67.5 0,-67.5"/>
<text text-anchor="middle" x="19" y="-74.5" font-family="Helvetica,sans-Serif" font-size="10.00">bool</text>
</a>
</g>
</g>
<!-- Node2&#45;&gt;Node1 -->
<g id="edge1" class="edge">
<title>Node2&#45;&gt;Node1</title>
<path fill="none" stroke="#9a32cd" stroke-dasharray="5,2" d="M31.1,-58.9C40.04,-46.27 51.83,-29.6 58.89,-19.63"/>
<polygon fill="#9a32cd" stroke="#9a32cd" points="28.12,-57.05 25.2,-67.23 33.84,-61.09 28.12,-57.05"/>
<text text-anchor="middle" x="62" y="-41" font-family="Helvetica,sans-Serif" font-size="10.00"> active</text>
</g>
<!-- Node3 -->
<g id="node3" class="node">
<title>Node3</title>
<g id="a_node3"><a xlink:title=" ">
<polygon fill="white" stroke="#bfbfbf" points="56,-67.5 56,-86.5 168,-86.5 168,-67.5 56,-67.5"/>
<text text-anchor="middle" x="112" y="-74.5" font-family="Helvetica,sans-Serif" font-size="10.00">LiquidCrystal_I2C &amp;</text>
</a>
</g>
</g>
<!-- Node3&#45;&gt;Node1 -->
<g id="edge2" class="edge">
<title>Node3&#45;&gt;Node1</title>
<path fill="none" stroke="#9a32cd" stroke-dasharray="5,2" d="M99.64,-58.9C90.51,-46.27 78.45,-29.6 71.24,-19.63"/>
<polygon fill="#9a32cd" stroke="#9a32cd" points="96.97,-61.18 105.66,-67.23 102.64,-57.08 96.97,-61.18"/>
<text text-anchor="middle" x="100" y="-41" font-family="Helvetica,sans-Serif" font-size="10.00"> lcd</text>
</g>
</g>
</svg>
