<?xml version="1.0" encoding="UTF-8" standalone="no"?>
<!DOCTYPE svg PUBLIC "-//W3C//DTD SVG 1.1//EN"
 "http://www.w3.org/Graphics/SVG/1.1/DTD/svg11.dtd">
<!-- Generated by graphviz version 2.43.0 (0)
 -->
<!-- Title: Display::drawState Pages: 1 -->
<!--zoomable 224 -->
<svg id="main" version="1.1" xmlns="http://www.w3.org/2000/svg" xmlns:xlink="http://www.w3.org/1999/xlink" xml:space="preserve" onload="init(evt)">
<style type="text/css"><![CDATA[
.edge:hover path { stroke: red; }
.edge:hover polygon { stroke: red; fill: red; }
]]></style>
<script type="text/javascript"><![CDATA[
var edges = document.getElementsByTagName('g');
if (edges && edges.length) {
  for (var i=0;i<edges.length;i++) {
    if (edges[i].id.substr(0,4)=='edge') {
      edges[i].setAttribute('class','edge');
    }
  }
}
]]></script>
        <defs>
                <circle id="rim" cx="0" cy="0" r="7"/>
                <circle id="rim2" cx="0" cy="0" r="3.5"/>
                <g id="zoomPlus">
                        <use xlink:href="#rim" fill="#404040">
                                <set attributeName="fill" to="#808080" begin="zoomplus.mouseover" end="zoomplus.mouseout"/>
                        </use>
                        <path d="M-4,0h8M0,-4v8" fill="none" stroke="white" stroke-width="1.5" pointer-events="none"/>
                </g>
                <g id="zoomMin">
                        <use xlink:href="#rim" fill="#404040">
                                <set attributeName="fill" to="#808080" begin="zoomminus.mouseover" end="zoomminus.mouseout"/>
                        </use>
                        <path d="M-4,0h8" fill="none" stroke="white" stroke-width="1.5" pointer-events="none"/>
                </g>
                <g id="dirArrow">
                        <path fill="none" stroke="white" stroke-width="1.5" d="M0,-3.0v7 M-2.5,-0.5L0,-3.0L2.5,-0.5"/>
                </g>
               <g id="resetDef">
                       <use xlink:href="#rim2" fill="#404040">
                               <set attributeName="fill" to="#808080" begin="reset.mouseover" end="reset.mouseout"/>
                       </use>
               </g>
        </defs>

<script type="text/javascript">
var viewWidth = 612;
var viewHeight = 224;
var sectionId = 'dynsection-2';
</script>
<script xlink:href="svgpan.js"/>
<svg id="graph" class="graph">
<g id="viewport">
<title>Display::drawState</title>
<polygon fill="white" stroke="transparent" points="-4,4 -4,-220 608,-220 608,4 -4,4"/>
<!-- Node1 -->
<g id="node1" class="node">
<title>Node1</title>
<g id="a_node1"><a xlink:title="Called whenever data that the system might have on the screen is updated. Also called upon activating...">
<polygon fill="#bfbfbf" stroke="black" points="496,-76.5 496,-95.5 604,-95.5 604,-76.5 496,-76.5"/>
<text text-anchor="middle" x="550" y="-83.5" font-family="Helvetica,sans-Serif" font-size="10.00">Display::drawState</text>
</a>
</g>
</g>
<!-- Node2 -->
<g id="node2" class="node">
<title>Node2</title>
<g id="a_node2"><a xlink:href="class_display.html#a1a3d644a8e4aa154d87f1825238c314e" target="_top" xlink:title="Draws the display as the current one on the screen.">
<polygon fill="white" stroke="black" points="362,-76.5 362,-95.5 460,-95.5 460,-76.5 362,-76.5"/>
<text text-anchor="middle" x="411" y="-83.5" font-family="Helvetica,sans-Serif" font-size="10.00">Display::activate</text>
</a>
</g>
</g>
<!-- Node1&#45;&gt;Node2 -->
<g id="edge1" class="edge">
<title>Node1&#45;&gt;Node2</title>
<path fill="none" stroke="midnightblue" d="M485.64,-86C477.04,-86 468.34,-86 460.08,-86"/>
<polygon fill="midnightblue" stroke="midnightblue" points="485.64,-89.5 495.64,-86 485.64,-82.5 485.64,-89.5"/>
</g>
<!-- Node3 -->
<g id="node3" class="node">
<title>Node3</title>
<g id="a_node3"><a xlink:href="class_display_interval_tick.html#a9bc3dd5ac4d44faba49c3bef849ad4e1" target="_top" xlink:title="Draws the display as the current one on the screen.">
<polygon fill="white" stroke="black" points="193.5,-153 193.5,-183 304.5,-183 304.5,-153 193.5,-153"/>
<text text-anchor="start" x="201.5" y="-171" font-family="Helvetica,sans-Serif" font-size="10.00">DisplayIntervalTick</text>
<text text-anchor="middle" x="249" y="-160" font-family="Helvetica,sans-Serif" font-size="10.00">::activate</text>
</a>
</g>
</g>
<!-- Node2&#45;&gt;Node3 -->
<g id="edge2" class="edge">
<title>Node2&#45;&gt;Node3</title>
<path fill="none" stroke="midnightblue" d="M389.86,-102.03C373.43,-114.51 349.22,-131.58 326,-143 318.52,-146.68 310.37,-150 302.28,-152.94"/>
<polygon fill="midnightblue" stroke="midnightblue" points="392.37,-104.52 398.14,-95.63 388.08,-98.98 392.37,-104.52"/>
</g>
<!-- Node7 -->
<g id="node7" class="node">
<title>Node7</title>
<g id="a_node7"><a xlink:href="class_display_home.html#ac5f062514c1c55a957f589afe0b4a8f8" target="_top" xlink:title="Draws the display as the current one on the screen.">
<polygon fill="white" stroke="black" points="185,-38.5 185,-57.5 313,-57.5 313,-38.5 185,-38.5"/>
<text text-anchor="middle" x="249" y="-45.5" font-family="Helvetica,sans-Serif" font-size="10.00">DisplayHome::activate</text>
</a>
</g>
</g>
<!-- Node2&#45;&gt;Node7 -->
<g id="edge6" class="edge">
<title>Node2&#45;&gt;Node7</title>
<path fill="none" stroke="midnightblue" d="M359.61,-74.03C337.19,-68.71 311.15,-62.52 290.08,-57.52"/>
<polygon fill="midnightblue" stroke="midnightblue" points="359.09,-77.51 369.63,-76.41 360.7,-70.69 359.09,-77.51"/>
</g>
<!-- Node9 -->
<g id="node9" class="node">
<title>Node9</title>
<g id="a_node9"><a xlink:href="class_display_water_temp.html#a5162af6983cb9973e3e509eb64d56853" target="_top" xlink:title="Draws the display as the current one on the screen.">
<polygon fill="white" stroke="black" points="172,-76.5 172,-95.5 326,-95.5 326,-76.5 172,-76.5"/>
<text text-anchor="middle" x="249" y="-83.5" font-family="Helvetica,sans-Serif" font-size="10.00">DisplayWaterTemp::activate</text>
</a>
</g>
</g>
<!-- Node2&#45;&gt;Node9 -->
<g id="edge8" class="edge">
<title>Node2&#45;&gt;Node9</title>
<path fill="none" stroke="midnightblue" d="M351.95,-86C343.55,-86 334.79,-86 326.1,-86"/>
<polygon fill="midnightblue" stroke="midnightblue" points="351.99,-89.5 361.99,-86 351.99,-82.5 351.99,-89.5"/>
</g>
<!-- Node10 -->
<g id="node10" class="node">
<title>Node10</title>
<g id="a_node10"><a xlink:href="class_display_error.html#a3ad825d3d6cf93ef25cd2ac4a07dd380" target="_top" xlink:title="Draws the display as the current one on the screen.">
<polygon fill="white" stroke="black" points="188,-114.5 188,-133.5 310,-133.5 310,-114.5 188,-114.5"/>
<text text-anchor="middle" x="249" y="-121.5" font-family="Helvetica,sans-Serif" font-size="10.00">DisplayError::activate</text>
</a>
</g>
</g>
<!-- Node2&#45;&gt;Node10 -->
<g id="edge9" class="edge">
<title>Node2&#45;&gt;Node10</title>
<path fill="none" stroke="midnightblue" d="M359.61,-97.97C337.19,-103.29 311.15,-109.48 290.08,-114.48"/>
<polygon fill="midnightblue" stroke="midnightblue" points="360.7,-101.31 369.63,-95.59 359.09,-94.49 360.7,-101.31"/>
</g>
<!-- Node11 -->
<g id="node11" class="node">
<title>Node11</title>
<g id="a_node11"><a xlink:href="class_display_time.html#aff8fdeb60eee78e7b606dbf61ee18e8e" target="_top" xlink:title="Draws the display as the current one on the screen.">
<polygon fill="white" stroke="black" points="187,-0.5 187,-19.5 311,-19.5 311,-0.5 187,-0.5"/>
<text text-anchor="middle" x="249" y="-7.5" font-family="Helvetica,sans-Serif" font-size="10.00">DisplayTime::activate</text>
</a>
</g>
</g>
<!-- Node2&#45;&gt;Node11 -->
<g id="edge12" class="edge">
<title>Node2&#45;&gt;Node11</title>
<path fill="none" stroke="midnightblue" d="M390.64,-69.94C374.33,-57.15 349.89,-39.69 326,-29 317.56,-25.22 308.24,-22.11 299.1,-19.58"/>
<polygon fill="midnightblue" stroke="midnightblue" points="388.82,-72.97 398.81,-76.49 393.2,-67.5 388.82,-72.97"/>
</g>
<!-- Node4 -->
<g id="node4" class="node">
<title>Node4</title>
<g id="a_node4"><a xlink:href="class_display_about.html#a470f197876fb3727389cc0b6e9ad7e80" target="_top" xlink:title="Draws the display as the current one on the screen.">
<polygon fill="white" stroke="black" points="4,-196.5 4,-215.5 132,-215.5 132,-196.5 4,-196.5"/>
<text text-anchor="middle" x="68" y="-203.5" font-family="Helvetica,sans-Serif" font-size="10.00">DisplayAbout::activate</text>
</a>
</g>
</g>
<!-- Node3&#45;&gt;Node4 -->
<g id="edge3" class="edge">
<title>Node3&#45;&gt;Node4</title>
<path fill="none" stroke="midnightblue" d="M183.3,-181.73C160.33,-186.61 135,-191.99 114.03,-196.44"/>
<polygon fill="midnightblue" stroke="midnightblue" points="184.27,-185.11 193.32,-179.61 182.81,-178.26 184.27,-185.11"/>
</g>
<!-- Node5 -->
<g id="node5" class="node">
<title>Node5</title>
<g id="a_node5"><a xlink:href="class_display_voltage.html#a7de83f5d55fb4616178e8e6e9622298f" target="_top" xlink:title="Draws the display as the current one on the screen.">
<polygon fill="white" stroke="black" points="0,-158.5 0,-177.5 136,-177.5 136,-158.5 0,-158.5"/>
<text text-anchor="middle" x="68" y="-165.5" font-family="Helvetica,sans-Serif" font-size="10.00">DisplayVoltage::activate</text>
</a>
</g>
</g>
<!-- Node3&#45;&gt;Node5 -->
<g id="edge4" class="edge">
<title>Node3&#45;&gt;Node5</title>
<path fill="none" stroke="midnightblue" d="M182.99,-168C167.8,-168 151.58,-168 136.29,-168"/>
<polygon fill="midnightblue" stroke="midnightblue" points="183.32,-171.5 193.32,-168 183.32,-164.5 183.32,-171.5"/>
</g>
<!-- Node6 -->
<g id="node6" class="node">
<title>Node6</title>
<g id="a_node6"><a xlink:href="class_display_error_alternating.html#a8d89cf1ded6cc8216cfa585cf61db4c1" target="_top" xlink:title="Activates the error display first.">
<polygon fill="white" stroke="black" points="2.5,-109 2.5,-139 133.5,-139 133.5,-109 2.5,-109"/>
<text text-anchor="start" x="10.5" y="-127" font-family="Helvetica,sans-Serif" font-size="10.00">DisplayErrorAlternating</text>
<text text-anchor="middle" x="68" y="-116" font-family="Helvetica,sans-Serif" font-size="10.00">::activate</text>
</a>
</g>
</g>
<!-- Node3&#45;&gt;Node6 -->
<g id="edge5" class="edge">
<title>Node3&#45;&gt;Node6</title>
<path fill="none" stroke="midnightblue" d="M183.31,-152.1C165.99,-147.84 147.34,-143.26 130.22,-139.05"/>
<polygon fill="midnightblue" stroke="midnightblue" points="182.78,-155.57 193.32,-154.56 184.45,-148.77 182.78,-155.57"/>
</g>
<!-- Node8 -->
<g id="node8" class="node">
<title>Node8</title>
<g id="a_node8"><a xlink:href="class_display_error_alternating.html#a6ded4b97fe2d8124e90fcad0f02463c4" target="_top" xlink:title="Swaps beteen home and error.">
<polygon fill="white" stroke="black" points="2.5,-47 2.5,-77 133.5,-77 133.5,-47 2.5,-47"/>
<text text-anchor="start" x="10.5" y="-65" font-family="Helvetica,sans-Serif" font-size="10.00">DisplayErrorAlternating</text>
<text text-anchor="middle" x="68" y="-54" font-family="Helvetica,sans-Serif" font-size="10.00">::intervalTick</text>
</a>
</g>
</g>
<!-- Node7&#45;&gt;Node8 -->
<g id="edge7" class="edge">
<title>Node7&#45;&gt;Node8</title>
<path fill="none" stroke="midnightblue" d="M174.63,-53.74C161.05,-54.8 146.95,-55.9 133.66,-56.94"/>
<polygon fill="midnightblue" stroke="midnightblue" points="175.19,-57.21 184.89,-52.94 174.65,-50.23 175.19,-57.21"/>
</g>
<!-- Node10&#45;&gt;Node6 -->
<g id="edge10" class="edge">
<title>Node10&#45;&gt;Node6</title>
<path fill="none" stroke="midnightblue" d="M177.49,-124C163,-124 147.82,-124 133.55,-124"/>
<polygon fill="midnightblue" stroke="midnightblue" points="177.9,-127.5 187.9,-124 177.9,-120.5 177.9,-127.5"/>
</g>
<!-- Node10&#45;&gt;Node8 -->
<g id="edge11" class="edge">
<title>Node10&#45;&gt;Node8</title>
<path fill="none" stroke="midnightblue" d="M195.23,-111.9C187.39,-109.79 179.44,-107.47 172,-105 147.91,-97.01 121.5,-85.94 101.46,-77.03"/>
<polygon fill="midnightblue" stroke="midnightblue" points="194.51,-115.33 205.07,-114.46 196.27,-108.56 194.51,-115.33"/>
</g>
</g>
</svg>
        <g id="navigator" transform="translate(0 0)" fill="#404254">
                <rect fill="#f2f5e9" fill-opacity="0.5" stroke="#606060" stroke-width=".5" x="0" y="0" width="60" height="60"/>
                <use id="zoomplus" xlink:href="#zoomPlus" x="17" y="9" onmousedown="handleZoom(evt,'in')"/>
                <use id="zoomminus" xlink:href="#zoomMin" x="42" y="9" onmousedown="handleZoom(evt,'out')"/>
                <use id="reset" xlink:href="#resetDef" x="30" y="36" onmousedown="handleReset()"/>
                <g id="arrowUp" xlink:href="#dirArrow" transform="translate(30 24)" onmousedown="handlePan(0,-1)">
                  <use xlink:href="#rim" fill="#404040">
                        <set attributeName="fill" to="#808080" begin="arrowUp.mouseover" end="arrowUp.mouseout"/>
                  </use>
                  <path fill="none" stroke="white" stroke-width="1.5" d="M0,-3.0v7 M-2.5,-0.5L0,-3.0L2.5,-0.5"/>
                </g>
                <g id="arrowRight" xlink:href="#dirArrow" transform="rotate(90) translate(36 -43)" onmousedown="handlePan(1,0)">
                  <use xlink:href="#rim" fill="#404040">
                        <set attributeName="fill" to="#808080" begin="arrowRight.mouseover" end="arrowRight.mouseout"/>
                  </use>
                  <path fill="none" stroke="white" stroke-width="1.5" d="M0,-3.0v7 M-2.5,-0.5L0,-3.0L2.5,-0.5"/>
                </g>
                <g id="arrowDown" xlink:href="#dirArrow" transform="rotate(180) translate(-30 -48)" onmousedown="handlePan(0,1)">
                  <use xlink:href="#rim" fill="#404040">
                        <set attributeName="fill" to="#808080" begin="arrowDown.mouseover" end="arrowDown.mouseout"/>
                  </use>
                  <path fill="none" stroke="white" stroke-width="1.5" d="M0,-3.0v7 M-2.5,-0.5L0,-3.0L2.5,-0.5"/>
                </g>
                <g id="arrowLeft" xlink:href="#dirArrow" transform="rotate(270) translate(-36 17)" onmousedown="handlePan(-1,0)">
                  <use xlink:href="#rim" fill="#404040">
                        <set attributeName="fill" to="#808080" begin="arrowLeft.mouseover" end="arrowLeft.mouseout"/>
                  </use>
                  <path fill="none" stroke="white" stroke-width="1.5" d="M0,-3.0v7 M-2.5,-0.5L0,-3.0L2.5,-0.5"/>
                </g>
        </g>
        <svg viewBox="0 0 15 15" width="100%" height="30px" preserveAspectRatio="xMaxYMin meet">
         <g id="arrow_out" transform="scale(0.3 0.3)">
          <a xlink:href="class_display_aa1541822a73b88db271b97b3b9cb6fde_icgraph_org.svg" target="_base">
           <rect id="button" ry="5" rx="5" y="6" x="6" height="38" width="38"
                fill="#f2f5e9" fill-opacity="0.5" stroke="#606060" stroke-width="1.0"/>
           <path id="arrow"
             d="M 11.500037,31.436501 C 11.940474,20.09759 22.043105,11.32322 32.158766,21.979434 L 37.068811,17.246167 C 37.068811,17.246167 37.088388,32 37.088388,32 L 22.160133,31.978069 C 22.160133,31.978069 26.997745,27.140456 26.997745,27.140456 C 18.528582,18.264221 13.291696,25.230495 11.500037,31.436501 z"
             style="fill:#404040;"/>
          </a>
         </g>
        </svg>
</svg>
