<?xml version="1.0" encoding="UTF-8" standalone="no"?>
<!DOCTYPE svg PUBLIC "-//W3C//DTD SVG 1.1//EN"
 "http://www.w3.org/Graphics/SVG/1.1/DTD/svg11.dtd">
<!-- Generated by graphviz version 2.43.0 (0)
 -->
<!-- Title: Display Pages: 1 -->
<svg width="538pt" height="140pt"
 viewBox="0.00 0.00 537.50 140.00" xmlns="http://www.w3.org/2000/svg" xmlns:xlink="http://www.w3.org/1999/xlink">
<g id="graph0" class="graph" transform="scale(1 1) rotate(0) translate(4 136)">
<title>Display</title>
<polygon fill="white" stroke="transparent" points="-4,4 -4,-136 533.5,-136 533.5,4 -4,4"/>
<!-- Node1 -->
<g id="node1" class="node">
<title>Node1</title>
<g id="a_node1"><a xlink:title="Base class for each window that is displayed on the LCD.">
<polygon fill="#bfbfbf" stroke="black" points="225,-112.5 225,-131.5 278,-131.5 278,-112.5 225,-112.5"/>
<text text-anchor="middle" x="251.5" y="-119.5" font-family="Helvetica,sans-Serif" font-size="10.00">Display</text>
</a>
</g>
</g>
<!-- Node2 -->
<g id="node2" class="node">
<title>Node2</title>
<g id="a_node2"><a xlink:href="class_display_error.html" target="_top" xlink:title="Display that shows an error message on the screen.">
<polygon fill="white" stroke="black" points="0,-56.5 0,-75.5 77,-75.5 77,-56.5 0,-56.5"/>
<text text-anchor="middle" x="38.5" y="-63.5" font-family="Helvetica,sans-Serif" font-size="10.00">DisplayError</text>
</a>
</g>
</g>
<!-- Node1&#45;&gt;Node2 -->
<g id="edge1" class="edge">
<title>Node1&#45;&gt;Node2</title>
<path fill="none" stroke="midnightblue" d="M215.05,-111.76C174.93,-101.59 110.98,-85.38 72.05,-75.51"/>
<polygon fill="midnightblue" stroke="midnightblue" points="214.4,-115.21 224.95,-114.27 216.12,-108.42 214.4,-115.21"/>
</g>
<!-- Node3 -->
<g id="node3" class="node">
<title>Node3</title>
<g id="a_node3"><a xlink:href="class_display_home.html" target="_top" xlink:title="Class for the main home screen of the display.">
<polygon fill="white" stroke="black" points="95,-56.5 95,-75.5 178,-75.5 178,-56.5 95,-56.5"/>
<text text-anchor="middle" x="136.5" y="-63.5" font-family="Helvetica,sans-Serif" font-size="10.00">DisplayHome</text>
</a>
</g>
</g>
<!-- Node1&#45;&gt;Node3 -->
<g id="edge2" class="edge">
<title>Node1&#45;&gt;Node3</title>
<path fill="none" stroke="midnightblue" d="M224.02,-108.1C202.53,-98.01 173.28,-84.27 154.64,-75.52"/>
<polygon fill="midnightblue" stroke="midnightblue" points="222.74,-111.36 233.28,-112.44 225.71,-105.02 222.74,-111.36"/>
</g>
<!-- Node4 -->
<g id="node4" class="node">
<title>Node4</title>
<g id="a_node4"><a xlink:href="class_display_interval_tick.html" target="_top" xlink:title="Adds an interval based tick to the display class. The interval is reset whenever the display is activ...">
<polygon fill="white" stroke="black" points="196,-56.5 196,-75.5 307,-75.5 307,-56.5 196,-56.5"/>
<text text-anchor="middle" x="251.5" y="-63.5" font-family="Helvetica,sans-Serif" font-size="10.00">DisplayIntervalTick</text>
</a>
</g>
</g>
<!-- Node1&#45;&gt;Node4 -->
<g id="edge3" class="edge">
<title>Node1&#45;&gt;Node4</title>
<path fill="none" stroke="midnightblue" d="M251.5,-101.8C251.5,-92.91 251.5,-82.78 251.5,-75.75"/>
<polygon fill="midnightblue" stroke="midnightblue" points="248,-102.08 251.5,-112.08 255,-102.08 248,-102.08"/>
</g>
<!-- Node8 -->
<g id="node8" class="node">
<title>Node8</title>
<g id="a_node8"><a xlink:href="class_display_time.html" target="_top" xlink:title="Display that shows the total and trip times.">
<polygon fill="white" stroke="black" points="325.5,-56.5 325.5,-75.5 403.5,-75.5 403.5,-56.5 325.5,-56.5"/>
<text text-anchor="middle" x="364.5" y="-63.5" font-family="Helvetica,sans-Serif" font-size="10.00">DisplayTime</text>
</a>
</g>
</g>
<!-- Node1&#45;&gt;Node8 -->
<g id="edge7" class="edge">
<title>Node1&#45;&gt;Node8</title>
<path fill="none" stroke="midnightblue" d="M278.5,-108.1C299.61,-98.01 328.36,-84.27 346.68,-75.52"/>
<polygon fill="midnightblue" stroke="midnightblue" points="276.92,-104.97 269.41,-112.44 279.94,-111.29 276.92,-104.97"/>
</g>
<!-- Node9 -->
<g id="node9" class="node">
<title>Node9</title>
<g id="a_node9"><a xlink:href="class_display_water_temp.html" target="_top" xlink:title="Class for the water temperature.">
<polygon fill="white" stroke="black" points="421.5,-56.5 421.5,-75.5 529.5,-75.5 529.5,-56.5 421.5,-56.5"/>
<text text-anchor="middle" x="475.5" y="-63.5" font-family="Helvetica,sans-Serif" font-size="10.00">DisplayWaterTemp</text>
</a>
</g>
</g>
<!-- Node1&#45;&gt;Node9 -->
<g id="edge8" class="edge">
<title>Node1&#45;&gt;Node9</title>
<path fill="none" stroke="midnightblue" d="M287.89,-112.23C329.91,-102.1 398.54,-85.55 440.12,-75.53"/>
<polygon fill="midnightblue" stroke="midnightblue" points="286.98,-108.85 278.08,-114.59 288.62,-115.65 286.98,-108.85"/>
</g>
<!-- Node5 -->
<g id="node5" class="node">
<title>Node5</title>
<g id="a_node5"><a xlink:href="class_display_about.html" target="_top" xlink:title="A simple about page that shows more info on the unit.">
<polygon fill="white" stroke="black" points="85.5,-0.5 85.5,-19.5 167.5,-19.5 167.5,-0.5 85.5,-0.5"/>
<text text-anchor="middle" x="126.5" y="-7.5" font-family="Helvetica,sans-Serif" font-size="10.00">DisplayAbout</text>
</a>
</g>
</g>
<!-- Node4&#45;&gt;Node5 -->
<g id="edge4" class="edge">
<title>Node4&#45;&gt;Node5</title>
<path fill="none" stroke="midnightblue" d="M222.26,-52.37C198.85,-42.26 166.66,-28.35 146.21,-19.52"/>
<polygon fill="midnightblue" stroke="midnightblue" points="221.13,-55.69 231.69,-56.44 223.9,-49.26 221.13,-55.69"/>
</g>
<!-- Node6 -->
<g id="node6" class="node">
<title>Node6</title>
<g id="a_node6"><a xlink:href="class_display_error_alternating.html" target="_top" xlink:title="Alternates between display error and home regularly.">
<polygon fill="white" stroke="black" points="186,-0.5 186,-19.5 317,-19.5 317,-0.5 186,-0.5"/>
<text text-anchor="middle" x="251.5" y="-7.5" font-family="Helvetica,sans-Serif" font-size="10.00">DisplayErrorAlternating</text>
</a>
</g>
</g>
<!-- Node4&#45;&gt;Node6 -->
<g id="edge5" class="edge">
<title>Node4&#45;&gt;Node6</title>
<path fill="none" stroke="midnightblue" d="M251.5,-45.8C251.5,-36.91 251.5,-26.78 251.5,-19.75"/>
<polygon fill="midnightblue" stroke="midnightblue" points="248,-46.08 251.5,-56.08 255,-46.08 248,-46.08"/>
</g>
<!-- Node7 -->
<g id="node7" class="node">
<title>Node7</title>
<g id="a_node7"><a xlink:href="class_display_voltage.html" target="_top" xlink:title="Class for the water temperature.">
<polygon fill="white" stroke="black" points="335.5,-0.5 335.5,-19.5 425.5,-19.5 425.5,-0.5 335.5,-0.5"/>
<text text-anchor="middle" x="380.5" y="-7.5" font-family="Helvetica,sans-Serif" font-size="10.00">DisplayVoltage</text>
</a>
</g>
</g>
<!-- Node4&#45;&gt;Node7 -->
<g id="edge6" class="edge">
<title>Node4&#45;&gt;Node7</title>
<path fill="none" stroke="midnightblue" d="M281.35,-52.5C305.54,-42.38 338.96,-28.39 360.16,-19.52"/>
<polygon fill="midnightblue" stroke="midnightblue" points="279.81,-49.35 271.94,-56.44 282.52,-55.81 279.81,-49.35"/>
</g>
</g>
</svg>
