<?xml version="1.0" encoding="UTF-8" standalone="no"?>
<!DOCTYPE svg PUBLIC "-//W3C//DTD SVG 1.1//EN"
 "http://www.w3.org/Graphics/SVG/1.1/DTD/svg11.dtd">
<!-- Generated by graphviz version 2.43.0 (0)
 -->
<!-- Title: DisplayIntervalTick Pages: 1 -->
<svg width="348pt" height="140pt"
 viewBox="0.00 0.00 348.00 140.00" xmlns="http://www.w3.org/2000/svg" xmlns:xlink="http://www.w3.org/1999/xlink">
<g id="graph0" class="graph" transform="scale(1 1) rotate(0) translate(4 136)">
<title>DisplayIntervalTick</title>
<polygon fill="white" stroke="transparent" points="-4,4 -4,-136 344,-136 344,4 -4,4"/>
<!-- Node1 -->
<g id="node1" class="node">
<title>Node1</title>
<g id="a_node1"><a xlink:title="Adds an interval based tick to the display class. The interval is reset whenever the display is activ...">
<polygon fill="#bfbfbf" stroke="black" points="110.5,-56.5 110.5,-75.5 221.5,-75.5 221.5,-56.5 110.5,-56.5"/>
<text text-anchor="middle" x="166" y="-63.5" font-family="Helvetica,sans-Serif" font-size="10.00">DisplayIntervalTick</text>
</a>
</g>
</g>
<!-- Node3 -->
<g id="node3" class="node">
<title>Node3</title>
<g id="a_node3"><a xlink:href="class_display_about.html" target="_top" xlink:title="A simple about page that shows more info on the unit.">
<polygon fill="white" stroke="black" points="0,-0.5 0,-19.5 82,-19.5 82,-0.5 0,-0.5"/>
<text text-anchor="middle" x="41" y="-7.5" font-family="Helvetica,sans-Serif" font-size="10.00">DisplayAbout</text>
</a>
</g>
</g>
<!-- Node1&#45;&gt;Node3 -->
<g id="edge2" class="edge">
<title>Node1&#45;&gt;Node3</title>
<path fill="none" stroke="midnightblue" d="M136.76,-52.37C113.35,-42.26 81.16,-28.35 60.71,-19.52"/>
<polygon fill="midnightblue" stroke="midnightblue" points="135.63,-55.69 146.19,-56.44 138.4,-49.26 135.63,-55.69"/>
</g>
<!-- Node4 -->
<g id="node4" class="node">
<title>Node4</title>
<g id="a_node4"><a xlink:href="class_display_error_alternating.html" target="_top" xlink:title="Alternates between display error and home regularly.">
<polygon fill="white" stroke="black" points="100.5,-0.5 100.5,-19.5 231.5,-19.5 231.5,-0.5 100.5,-0.5"/>
<text text-anchor="middle" x="166" y="-7.5" font-family="Helvetica,sans-Serif" font-size="10.00">DisplayErrorAlternating</text>
</a>
</g>
</g>
<!-- Node1&#45;&gt;Node4 -->
<g id="edge3" class="edge">
<title>Node1&#45;&gt;Node4</title>
<path fill="none" stroke="midnightblue" d="M166,-45.8C166,-36.91 166,-26.78 166,-19.75"/>
<polygon fill="midnightblue" stroke="midnightblue" points="162.5,-46.08 166,-56.08 169.5,-46.08 162.5,-46.08"/>
</g>
<!-- Node5 -->
<g id="node5" class="node">
<title>Node5</title>
<g id="a_node5"><a xlink:href="class_display_voltage.html" target="_top" xlink:title="Class for the water temperature.">
<polygon fill="white" stroke="black" points="250,-0.5 250,-19.5 340,-19.5 340,-0.5 250,-0.5"/>
<text text-anchor="middle" x="295" y="-7.5" font-family="Helvetica,sans-Serif" font-size="10.00">DisplayVoltage</text>
</a>
</g>
</g>
<!-- Node1&#45;&gt;Node5 -->
<g id="edge4" class="edge">
<title>Node1&#45;&gt;Node5</title>
<path fill="none" stroke="midnightblue" d="M195.85,-52.5C220.04,-42.38 253.46,-28.39 274.66,-19.52"/>
<polygon fill="midnightblue" stroke="midnightblue" points="194.31,-49.35 186.44,-56.44 197.02,-55.81 194.31,-49.35"/>
</g>
<!-- Node2 -->
<g id="node2" class="node">
<title>Node2</title>
<g id="a_node2"><a xlink:href="class_display.html" target="_top" xlink:title="Base class for each window that is displayed on the LCD.">
<polygon fill="white" stroke="black" points="139.5,-112.5 139.5,-131.5 192.5,-131.5 192.5,-112.5 139.5,-112.5"/>
<text text-anchor="middle" x="166" y="-119.5" font-family="Helvetica,sans-Serif" font-size="10.00">Display</text>
</a>
</g>
</g>
<!-- Node2&#45;&gt;Node1 -->
<g id="edge1" class="edge">
<title>Node2&#45;&gt;Node1</title>
<path fill="none" stroke="midnightblue" d="M166,-101.8C166,-92.91 166,-82.78 166,-75.75"/>
<polygon fill="midnightblue" stroke="midnightblue" points="162.5,-102.08 166,-112.08 169.5,-102.08 162.5,-102.08"/>
</g>
</g>
</svg>
