<?xml version="1.0" encoding="UTF-8" standalone="no"?>
<!DOCTYPE svg PUBLIC "-//W3C//DTD SVG 1.1//EN"
 "http://www.w3.org/Graphics/SVG/1.1/DTD/svg11.dtd">
<!-- Generated by graphviz version 2.43.0 (0)
 -->
<!-- Title: Sensor Pages: 1 -->
<svg width="486pt" height="84pt"
 viewBox="0.00 0.00 486.00 84.00" xmlns="http://www.w3.org/2000/svg" xmlns:xlink="http://www.w3.org/1999/xlink">
<g id="graph0" class="graph" transform="scale(1 1) rotate(0) translate(4 80)">
<title>Sensor</title>
<polygon fill="white" stroke="transparent" points="-4,4 -4,-80 482,-80 482,4 -4,4"/>
<!-- Node1 -->
<g id="node1" class="node">
<title>Node1</title>
<g id="a_node1"><a xlink:title="Base class for all sensors.">
<polygon fill="#bfbfbf" stroke="black" points="196,-56.5 196,-75.5 246,-75.5 246,-56.5 196,-56.5"/>
<text text-anchor="middle" x="221" y="-63.5" font-family="Helvetica,sans-Serif" font-size="10.00">Sensor</text>
</a>
</g>
</g>
<!-- Node2 -->
<g id="node2" class="node">
<title>Node2</title>
<g id="a_node2"><a xlink:href="class_sensor_battery.html" target="_top" xlink:title="Class for measuring the battery voltage.">
<polygon fill="white" stroke="black" points="0,-0.5 0,-19.5 86,-19.5 86,-0.5 0,-0.5"/>
<text text-anchor="middle" x="43" y="-7.5" font-family="Helvetica,sans-Serif" font-size="10.00">SensorBattery</text>
</a>
</g>
</g>
<!-- Node1&#45;&gt;Node2 -->
<g id="edge1" class="edge">
<title>Node1&#45;&gt;Node2</title>
<path fill="none" stroke="midnightblue" d="M186.02,-54.39C152.44,-44.2 102.35,-29 71.23,-19.56"/>
<polygon fill="midnightblue" stroke="midnightblue" points="185.29,-57.82 195.87,-57.38 187.32,-51.13 185.29,-57.82"/>
</g>
<!-- Node3 -->
<g id="node3" class="node">
<title>Node3</title>
<g id="a_node3"><a xlink:href="class_sensor_oil.html" target="_top" xlink:title="Measures whether the oil pressure switch is tripped.">
<polygon fill="white" stroke="black" points="104.5,-0.5 104.5,-19.5 167.5,-19.5 167.5,-0.5 104.5,-0.5"/>
<text text-anchor="middle" x="136" y="-7.5" font-family="Helvetica,sans-Serif" font-size="10.00">SensorOil</text>
</a>
</g>
</g>
<!-- Node1&#45;&gt;Node3 -->
<g id="edge2" class="edge">
<title>Node1&#45;&gt;Node3</title>
<path fill="none" stroke="midnightblue" d="M198.81,-50.9C183.22,-41 162.87,-28.07 149.62,-19.65"/>
<polygon fill="midnightblue" stroke="midnightblue" points="197.03,-53.92 207.34,-56.32 200.78,-48.01 197.03,-53.92"/>
</g>
<!-- Node4 -->
<g id="node4" class="node">
<title>Node4</title>
<g id="a_node4"><a xlink:href="class_sensor_r_p_m.html" target="_top" xlink:title="Class for logging RPM.">
<polygon fill="white" stroke="black" points="185.5,-0.5 185.5,-19.5 256.5,-19.5 256.5,-0.5 185.5,-0.5"/>
<text text-anchor="middle" x="221" y="-7.5" font-family="Helvetica,sans-Serif" font-size="10.00">SensorRPM</text>
</a>
</g>
</g>
<!-- Node1&#45;&gt;Node4 -->
<g id="edge3" class="edge">
<title>Node1&#45;&gt;Node4</title>
<path fill="none" stroke="midnightblue" d="M221,-45.8C221,-36.91 221,-26.78 221,-19.75"/>
<polygon fill="midnightblue" stroke="midnightblue" points="217.5,-46.08 221,-56.08 224.5,-46.08 217.5,-46.08"/>
</g>
<!-- Node5 -->
<g id="node5" class="node">
<title>Node5</title>
<g id="a_node5"><a xlink:href="class_sensor_temperature.html" target="_top" xlink:title="Class for measuring the temperature.">
<polygon fill="white" stroke="black" points="274.5,-0.5 274.5,-19.5 385.5,-19.5 385.5,-0.5 274.5,-0.5"/>
<text text-anchor="middle" x="330" y="-7.5" font-family="Helvetica,sans-Serif" font-size="10.00">SensorTemperature</text>
</a>
</g>
</g>
<!-- Node1&#45;&gt;Node5 -->
<g id="edge4" class="edge">
<title>Node1&#45;&gt;Node5</title>
<path fill="none" stroke="midnightblue" d="M247.52,-51.86C267.73,-41.85 294.99,-28.35 312.53,-19.65"/>
<polygon fill="midnightblue" stroke="midnightblue" points="245.92,-48.75 238.51,-56.32 249.03,-55.02 245.92,-48.75"/>
</g>
<!-- Node6 -->
<g id="node6" class="node">
<title>Node6</title>
<g id="a_node6"><a xlink:href="class_sensor_time.html" target="_top" xlink:title="Keeps track of total engine hours and trip engine hours.">
<polygon fill="white" stroke="black" points="404,-0.5 404,-19.5 478,-19.5 478,-0.5 404,-0.5"/>
<text text-anchor="middle" x="441" y="-7.5" font-family="Helvetica,sans-Serif" font-size="10.00">SensorTime</text>
</a>
</g>
</g>
<!-- Node1&#45;&gt;Node6 -->
<g id="edge5" class="edge">
<title>Node1&#45;&gt;Node6</title>
<path fill="none" stroke="midnightblue" d="M256.11,-56.38C297.34,-46.26 365.29,-29.58 406.33,-19.51"/>
<polygon fill="midnightblue" stroke="midnightblue" points="255.11,-53.02 246.24,-58.81 256.78,-59.82 255.11,-53.02"/>
</g>
</g>
</svg>
