<?xml version="1.0" encoding="UTF-8" standalone="no"?>
<!DOCTYPE svg PUBLIC "-//W3C//DTD SVG 1.1//EN"
 "http://www.w3.org/Graphics/SVG/1.1/DTD/svg11.dtd">
<!-- Generated by graphviz version 2.43.0 (0)
 -->
<!-- Title: SensorManager Pages: 1 -->
<!--zoomable 152 -->
<svg id="main" version="1.1" xmlns="http://www.w3.org/2000/svg" xmlns:xlink="http://www.w3.org/1999/xlink" xml:space="preserve" onload="init(evt)">
<style type="text/css"><![CDATA[
.edge:hover path { stroke: red; }
.edge:hover polygon { stroke: red; fill: red; }
]]></style>
<script type="text/javascript"><![CDATA[
var edges = document.getElementsByTagName('g');
if (edges && edges.length) {
  for (var i=0;i<edges.length;i++) {
    if (edges[i].id.substr(0,4)=='edge') {
      edges[i].setAttribute('class','edge');
    }
  }
}
]]></script>
        <defs>
                <circle id="rim" cx="0" cy="0" r="7"/>
                <circle id="rim2" cx="0" cy="0" r="3.5"/>
                <g id="zoomPlus">
                        <use xlink:href="#rim" fill="#404040">
                                <set attributeName="fill" to="#808080" begin="zoomplus.mouseover" end="zoomplus.mouseout"/>
                        </use>
                        <path d="M-4,0h8M0,-4v8" fill="none" stroke="white" stroke-width="1.5" pointer-events="none"/>
                </g>
                <g id="zoomMin">
                        <use xlink:href="#rim" fill="#404040">
                                <set attributeName="fill" to="#808080" begin="zoomminus.mouseover" end="zoomminus.mouseout"/>
                        </use>
                        <path d="M-4,0h8" fill="none" stroke="white" stroke-width="1.5" pointer-events="none"/>
                </g>
                <g id="dirArrow">
                        <path fill="none" stroke="white" stroke-width="1.5" d="M0,-3.0v7 M-2.5,-0.5L0,-3.0L2.5,-0.5"/>
                </g>
               <g id="resetDef">
                       <use xlink:href="#rim2" fill="#404040">
                               <set attributeName="fill" to="#808080" begin="reset.mouseover" end="reset.mouseout"/>
                       </use>
               </g>
        </defs>

<script type="text/javascript">
var viewWidth = 545;
var viewHeight = 152;
var sectionId = 'dynsection-0';
</script>
<script xlink:href="svgpan.js"/>
<svg id="graph" class="graph">
<g id="viewport">
<title>SensorManager</title>
<polygon fill="white" stroke="transparent" points="-4,4 -4,-148 541.43,-148 541.43,4 -4,4"/>
<!-- Node1 -->
<g id="node1" class="node">
<title>Node1</title>
<g id="a_node1"><a xlink:title="Class for managing sensors.">
<polygon fill="#bfbfbf" stroke="black" points="179.43,-0.5 179.43,-19.5 271.43,-19.5 271.43,-0.5 179.43,-0.5"/>
<text text-anchor="middle" x="225.43" y="-7.5" font-family="Helvetica,sans-Serif" font-size="10.00">SensorManager</text>
</a>
</g>
</g>
<!-- Node2 -->
<g id="node2" class="node">
<title>Node2</title>
<g id="a_node2"><a xlink:href="class_sensor_r_p_m.html" target="_top" xlink:title="Class for logging RPM.">
<polygon fill="white" stroke="black" points="58.93,-67.5 58.93,-86.5 129.93,-86.5 129.93,-67.5 58.93,-67.5"/>
<text text-anchor="middle" x="94.43" y="-74.5" font-family="Helvetica,sans-Serif" font-size="10.00">SensorRPM</text>
</a>
</g>
</g>
<!-- Node2&#45;&gt;Node1 -->
<g id="edge1" class="edge">
<title>Node2&#45;&gt;Node1</title>
<path fill="none" stroke="#9a32cd" stroke-dasharray="5,2" d="M121.09,-62.77C147.03,-49.9 185.71,-30.71 207.96,-19.67"/>
<polygon fill="#9a32cd" stroke="#9a32cd" points="119.23,-59.79 111.83,-67.37 122.34,-66.06 119.23,-59.79"/>
<text text-anchor="middle" x="179.93" y="-41" font-family="Helvetica,sans-Serif" font-size="10.00"> rpm</text>
</g>
<!-- Node3 -->
<g id="node3" class="node">
<title>Node3</title>
<g id="a_node3"><a xlink:href="class_sensor.html" target="_top" xlink:title="Base class for all sensors.">
<polygon fill="white" stroke="black" points="183.43,-124.5 183.43,-143.5 233.43,-143.5 233.43,-124.5 183.43,-124.5"/>
<text text-anchor="middle" x="208.43" y="-131.5" font-family="Helvetica,sans-Serif" font-size="10.00">Sensor</text>
</a>
</g>
</g>
<!-- Node3&#45;&gt;Node1 -->
<g id="edge11" class="edge">
<title>Node3&#45;&gt;Node1</title>
<path fill="none" stroke="#9a32cd" stroke-dasharray="5,2" d="M172.9,-133.15C104.43,-132.2 -35.36,-123.52 8.43,-67 29.16,-40.24 121.96,-23.99 179.28,-16.32"/>
<polygon fill="#9a32cd" stroke="#9a32cd" points="173.21,-136.66 183.24,-133.24 173.27,-129.66 173.21,-136.66"/>
<text text-anchor="middle" x="28.93" y="-74.5" font-family="Helvetica,sans-Serif" font-size="10.00"> sensors</text>
</g>
<!-- Node3&#45;&gt;Node2 -->
<g id="edge2" class="edge">
<title>Node3&#45;&gt;Node2</title>
<path fill="none" stroke="midnightblue" d="M181.39,-119.96C159.97,-109.62 130.64,-95.47 112.12,-86.53"/>
<polygon fill="midnightblue" stroke="midnightblue" points="180.09,-123.21 190.62,-124.41 183.13,-116.91 180.09,-123.21"/>
</g>
<!-- Node4 -->
<g id="node4" class="node">
<title>Node4</title>
<g id="a_node4"><a xlink:href="class_sensor_oil.html" target="_top" xlink:title="Measures whether the oil pressure switch is tripped.">
<polygon fill="white" stroke="black" points="147.93,-67.5 147.93,-86.5 210.93,-86.5 210.93,-67.5 147.93,-67.5"/>
<text text-anchor="middle" x="179.43" y="-74.5" font-family="Helvetica,sans-Serif" font-size="10.00">SensorOil</text>
</a>
</g>
</g>
<!-- Node3&#45;&gt;Node4 -->
<g id="edge4" class="edge">
<title>Node3&#45;&gt;Node4</title>
<path fill="none" stroke="midnightblue" d="M199.11,-115.33C194.07,-105.77 188.07,-94.38 184.02,-86.71"/>
<polygon fill="midnightblue" stroke="midnightblue" points="196.14,-117.19 203.9,-124.41 202.33,-113.93 196.14,-117.19"/>
</g>
<!-- Node5 -->
<g id="node5" class="node">
<title>Node5</title>
<g id="a_node5"><a xlink:href="class_sensor_battery.html" target="_top" xlink:title="Class for measuring the battery voltage.">
<polygon fill="white" stroke="black" points="229.43,-67.5 229.43,-86.5 315.43,-86.5 315.43,-67.5 229.43,-67.5"/>
<text text-anchor="middle" x="272.43" y="-74.5" font-family="Helvetica,sans-Serif" font-size="10.00">SensorBattery</text>
</a>
</g>
</g>
<!-- Node3&#45;&gt;Node5 -->
<g id="edge6" class="edge">
<title>Node3&#45;&gt;Node5</title>
<path fill="none" stroke="midnightblue" d="M226.22,-117.71C237.85,-107.72 252.62,-95.02 262.29,-86.71"/>
<polygon fill="midnightblue" stroke="midnightblue" points="223.73,-115.23 218.43,-124.41 228.3,-120.54 223.73,-115.23"/>
</g>
<!-- Node6 -->
<g id="node6" class="node">
<title>Node6</title>
<g id="a_node6"><a xlink:href="class_sensor_temperature.html" target="_top" xlink:title="Class for measuring the temperature.">
<polygon fill="white" stroke="black" points="333.93,-67.5 333.93,-86.5 444.93,-86.5 444.93,-67.5 333.93,-67.5"/>
<text text-anchor="middle" x="389.43" y="-74.5" font-family="Helvetica,sans-Serif" font-size="10.00">SensorTemperature</text>
</a>
</g>
</g>
<!-- Node3&#45;&gt;Node6 -->
<g id="edge8" class="edge">
<title>Node3&#45;&gt;Node6</title>
<path fill="none" stroke="midnightblue" d="M243.21,-122.43C277.53,-112 329.36,-96.25 361.2,-86.58"/>
<polygon fill="midnightblue" stroke="midnightblue" points="242.15,-119.1 233.6,-125.35 244.18,-125.79 242.15,-119.1"/>
</g>
<!-- Node7 -->
<g id="node7" class="node">
<title>Node7</title>
<g id="a_node7"><a xlink:href="class_sensor_time.html" target="_top" xlink:title="Keeps track of total engine hours and trip engine hours.">
<polygon fill="white" stroke="black" points="463.43,-67.5 463.43,-86.5 537.43,-86.5 537.43,-67.5 463.43,-67.5"/>
<text text-anchor="middle" x="500.43" y="-74.5" font-family="Helvetica,sans-Serif" font-size="10.00">SensorTime</text>
</a>
</g>
</g>
<!-- Node3&#45;&gt;Node7 -->
<g id="edge10" class="edge">
<title>Node3&#45;&gt;Node7</title>
<path fill="none" stroke="midnightblue" d="M243.56,-126.44C291.14,-117.56 378.72,-101.17 453.43,-87 456.61,-86.4 459.92,-85.77 463.23,-85.14"/>
<polygon fill="midnightblue" stroke="midnightblue" points="242.66,-123.05 233.48,-128.33 243.95,-129.93 242.66,-123.05"/>
</g>
<!-- Node4&#45;&gt;Node1 -->
<g id="edge3" class="edge">
<title>Node4&#45;&gt;Node1</title>
<path fill="none" stroke="#9a32cd" stroke-dasharray="5,2" d="M191.53,-58.9C200.47,-46.27 212.26,-29.6 219.32,-19.63"/>
<polygon fill="#9a32cd" stroke="#9a32cd" points="188.55,-57.05 185.63,-67.23 194.27,-61.09 188.55,-57.05"/>
<text text-anchor="middle" x="213.43" y="-41" font-family="Helvetica,sans-Serif" font-size="10.00"> oil</text>
</g>
<!-- Node5&#45;&gt;Node1 -->
<g id="edge5" class="edge">
<title>Node5&#45;&gt;Node1</title>
<path fill="none" stroke="#9a32cd" stroke-dasharray="5,2" d="M260.07,-58.9C250.93,-46.27 238.88,-29.6 231.67,-19.63"/>
<polygon fill="#9a32cd" stroke="#9a32cd" points="257.4,-61.18 266.09,-67.23 263.07,-57.08 257.4,-61.18"/>
<text text-anchor="middle" x="271.93" y="-41" font-family="Helvetica,sans-Serif" font-size="10.00"> battery</text>
</g>
<!-- Node6&#45;&gt;Node1 -->
<g id="edge7" class="edge">
<title>Node6&#45;&gt;Node1</title>
<path fill="none" stroke="#9a32cd" stroke-dasharray="5,2" d="M359.23,-63.65C340.82,-56.15 316.8,-46.44 295.43,-38 279.56,-31.73 261.6,-24.81 247.85,-19.54"/>
<polygon fill="#9a32cd" stroke="#9a32cd" points="357.98,-66.92 368.56,-67.45 360.62,-60.44 357.98,-66.92"/>
<text text-anchor="middle" x="353.43" y="-41" font-family="Helvetica,sans-Serif" font-size="10.00"> temperature</text>
</g>
<!-- Node7&#45;&gt;Node1 -->
<g id="edge9" class="edge">
<title>Node7&#45;&gt;Node1</title>
<path fill="none" stroke="#9a32cd" stroke-dasharray="5,2" d="M469.56,-63.88C447.52,-55.61 417.01,-44.94 389.43,-38 350.11,-28.11 304.55,-20.94 271.45,-16.49"/>
<polygon fill="#9a32cd" stroke="#9a32cd" points="468.46,-67.21 479.06,-67.49 470.95,-60.67 468.46,-67.21"/>
<text text-anchor="middle" x="440.43" y="-41" font-family="Helvetica,sans-Serif" font-size="10.00"> time</text>
</g>
</g>
</svg>
        <g id="navigator" transform="translate(0 0)" fill="#404254">
                <rect fill="#f2f5e9" fill-opacity="0.5" stroke="#606060" stroke-width=".5" x="0" y="0" width="60" height="60"/>
                <use id="zoomplus" xlink:href="#zoomPlus" x="17" y="9" onmousedown="handleZoom(evt,'in')"/>
                <use id="zoomminus" xlink:href="#zoomMin" x="42" y="9" onmousedown="handleZoom(evt,'out')"/>
                <use id="reset" xlink:href="#resetDef" x="30" y="36" onmousedown="handleReset()"/>
                <g id="arrowUp" xlink:href="#dirArrow" transform="translate(30 24)" onmousedown="handlePan(0,-1)">
                  <use xlink:href="#rim" fill="#404040">
                        <set attributeName="fill" to="#808080" begin="arrowUp.mouseover" end="arrowUp.mouseout"/>
                  </use>
                  <path fill="none" stroke="white" stroke-width="1.5" d="M0,-3.0v7 M-2.5,-0.5L0,-3.0L2.5,-0.5"/>
                </g>
                <g id="arrowRight" xlink:href="#dirArrow" transform="rotate(90) translate(36 -43)" onmousedown="handlePan(1,0)">
                  <use xlink:href="#rim" fill="#404040">
                        <set attributeName="fill" to="#808080" begin="arrowRight.mouseover" end="arrowRight.mouseout"/>
                  </use>
                  <path fill="none" stroke="white" stroke-width="1.5" d="M0,-3.0v7 M-2.5,-0.5L0,-3.0L2.5,-0.5"/>
                </g>
                <g id="arrowDown" xlink:href="#dirArrow" transform="rotate(180) translate(-30 -48)" onmousedown="handlePan(0,1)">
                  <use xlink:href="#rim" fill="#404040">
                        <set attributeName="fill" to="#808080" begin="arrowDown.mouseover" end="arrowDown.mouseout"/>
                  </use>
                  <path fill="none" stroke="white" stroke-width="1.5" d="M0,-3.0v7 M-2.5,-0.5L0,-3.0L2.5,-0.5"/>
                </g>
                <g id="arrowLeft" xlink:href="#dirArrow" transform="rotate(270) translate(-36 17)" onmousedown="handlePan(-1,0)">
                  <use xlink:href="#rim" fill="#404040">
                        <set attributeName="fill" to="#808080" begin="arrowLeft.mouseover" end="arrowLeft.mouseout"/>
                  </use>
                  <path fill="none" stroke="white" stroke-width="1.5" d="M0,-3.0v7 M-2.5,-0.5L0,-3.0L2.5,-0.5"/>
                </g>
        </g>
        <svg viewBox="0 0 15 15" width="100%" height="30px" preserveAspectRatio="xMaxYMin meet">
         <g id="arrow_out" transform="scale(0.3 0.3)">
          <a xlink:href="class_sensor_manager__coll__graph_org.svg" target="_base">
           <rect id="button" ry="5" rx="5" y="6" x="6" height="38" width="38"
                fill="#f2f5e9" fill-opacity="0.5" stroke="#606060" stroke-width="1.0"/>
           <path id="arrow"
             d="M 11.500037,31.436501 C 11.940474,20.09759 22.043105,11.32322 32.158766,21.979434 L 37.068811,17.246167 C 37.068811,17.246167 37.088388,32 37.088388,32 L 22.160133,31.978069 C 22.160133,31.978069 26.997745,27.140456 26.997745,27.140456 C 18.528582,18.264221 13.291696,25.230495 11.500037,31.436501 z"
             style="fill:#404040;"/>
          </a>
         </g>
        </svg>
</svg>
