<?xml version="1.0" encoding="UTF-8" standalone="no"?>
<!DOCTYPE svg PUBLIC "-//W3C//DTD SVG 1.1//EN"
 "http://www.w3.org/Graphics/SVG/1.1/DTD/svg11.dtd">
<!-- Generated by graphviz version 2.43.0 (0)
 -->
<!-- Title: Display::drawTenths Pages: 1 -->
<svg width="494pt" height="28pt"
 viewBox="0.00 0.00 494.00 28.00" xmlns="http://www.w3.org/2000/svg" xmlns:xlink="http://www.w3.org/1999/xlink">
<g id="graph0" class="graph" transform="scale(1 1) rotate(0) translate(4 24)">
<title>Display::drawTenths</title>
<polygon fill="white" stroke="transparent" points="-4,4 -4,-24 490,-24 490,4 -4,4"/>
<!-- Node1 -->
<g id="node1" class="node">
<title>Node1</title>
<g id="a_node1"><a xlink:title="Prints a number in tenths.">
<polygon fill="#bfbfbf" stroke="black" points="372,-0.5 372,-19.5 486,-19.5 486,-0.5 372,-0.5"/>
<text text-anchor="middle" x="429" y="-7.5" font-family="Helvetica,sans-Serif" font-size="10.00">Display::drawTenths</text>
</a>
</g>
</g>
<!-- Node2 -->
<g id="node2" class="node">
<title>Node2</title>
<g id="a_node2"><a xlink:href="class_display_voltage.html#a450e426d3fcbdd74702f63b2621b382c" target="_top" xlink:title="Called whenever data that the system might have on the screen is updated.">
<polygon fill="white" stroke="black" points="190,-0.5 190,-19.5 336,-19.5 336,-0.5 190,-0.5"/>
<text text-anchor="middle" x="263" y="-7.5" font-family="Helvetica,sans-Serif" font-size="10.00">DisplayVoltage::drawState</text>
</a>
</g>
</g>
<!-- Node1&#45;&gt;Node2 -->
<g id="edge1" class="edge">
<title>Node1&#45;&gt;Node2</title>
<path fill="none" stroke="midnightblue" d="M361.52,-10C353.18,-10 344.61,-10 336.18,-10"/>
<polygon fill="midnightblue" stroke="midnightblue" points="361.56,-13.5 371.56,-10 361.56,-6.5 361.56,-13.5"/>
</g>
<!-- Node3 -->
<g id="node3" class="node">
<title>Node3</title>
<g id="a_node3"><a xlink:href="class_display_voltage.html#a667bfa1591ef2fcceb1d0bdafb7db4ca" target="_top" xlink:title="Method that is called on the interval tick.">
<polygon fill="white" stroke="black" points="0,-0.5 0,-19.5 154,-19.5 154,-0.5 0,-0.5"/>
<text text-anchor="middle" x="77" y="-7.5" font-family="Helvetica,sans-Serif" font-size="10.00">DisplayVoltage::intervalTick</text>
</a>
</g>
</g>
<!-- Node2&#45;&gt;Node3 -->
<g id="edge2" class="edge">
<title>Node2&#45;&gt;Node3</title>
<path fill="none" stroke="midnightblue" d="M179.59,-10C171.15,-10 162.6,-10 154.23,-10"/>
<polygon fill="midnightblue" stroke="midnightblue" points="179.81,-13.5 189.81,-10 179.81,-6.5 179.81,-13.5"/>
</g>
</g>
</svg>
