<?xml version="1.0" encoding="UTF-8" standalone="no"?>
<!DOCTYPE svg PUBLIC "-//W3C//DTD SVG 1.1//EN"
 "http://www.w3.org/Graphics/SVG/1.1/DTD/svg11.dtd">
<!-- Generated by graphviz version 2.43.0 (0)
 -->
<!-- Title: Graph::display Pages: 1 -->
<svg width="285pt" height="66pt"
 viewBox="0.00 0.00 285.00 66.00" xmlns="http://www.w3.org/2000/svg" xmlns:xlink="http://www.w3.org/1999/xlink">
<g id="graph0" class="graph" transform="scale(1 1) rotate(0) translate(4 62)">
<title>Graph::display</title>
<polygon fill="white" stroke="transparent" points="-4,4 -4,-62 281,-62 281,4 -4,4"/>
<!-- Node1 -->
<g id="node1" class="node">
<title>Node1</title>
<g id="a_node1"><a xlink:title="Draws the graph in the bottom left corner.">
<polygon fill="#bfbfbf" stroke="black" points="190,-19.5 190,-38.5 277,-38.5 277,-19.5 190,-19.5"/>
<text text-anchor="middle" x="233.5" y="-26.5" font-family="Helvetica,sans-Serif" font-size="10.00">Graph::display</text>
</a>
</g>
</g>
<!-- Node2 -->
<g id="node2" class="node">
<title>Node2</title>
<g id="a_node2"><a xlink:href="class_display_water_temp.html#a5162af6983cb9973e3e509eb64d56853" target="_top" xlink:title="Draws the display as the current one on the screen.">
<polygon fill="white" stroke="black" points="0,-38.5 0,-57.5 154,-57.5 154,-38.5 0,-38.5"/>
<text text-anchor="middle" x="77" y="-45.5" font-family="Helvetica,sans-Serif" font-size="10.00">DisplayWaterTemp::activate</text>
</a>
</g>
</g>
<!-- Node1&#45;&gt;Node2 -->
<g id="edge1" class="edge">
<title>Node1&#45;&gt;Node2</title>
<path fill="none" stroke="midnightblue" d="M179.72,-35.49C171.51,-36.5 162.89,-37.56 154.28,-38.62"/>
<polygon fill="midnightblue" stroke="midnightblue" points="180.38,-38.94 189.87,-34.24 179.52,-31.99 180.38,-38.94"/>
</g>
<!-- Node3 -->
<g id="node3" class="node">
<title>Node3</title>
<g id="a_node3"><a xlink:href="class_display_voltage.html#a7de83f5d55fb4616178e8e6e9622298f" target="_top" xlink:title="Draws the display as the current one on the screen.">
<polygon fill="white" stroke="black" points="9,-0.5 9,-19.5 145,-19.5 145,-0.5 9,-0.5"/>
<text text-anchor="middle" x="77" y="-7.5" font-family="Helvetica,sans-Serif" font-size="10.00">DisplayVoltage::activate</text>
</a>
</g>
</g>
<!-- Node1&#45;&gt;Node3 -->
<g id="edge2" class="edge">
<title>Node1&#45;&gt;Node3</title>
<path fill="none" stroke="midnightblue" d="M179.86,-22.53C168.69,-21.15 156.76,-19.69 145.13,-18.26"/>
<polygon fill="midnightblue" stroke="midnightblue" points="179.52,-26.01 189.87,-23.76 180.38,-19.06 179.52,-26.01"/>
</g>
</g>
</svg>
