<?xml version="1.0" encoding="UTF-8" standalone="no"?>
<!DOCTYPE svg PUBLIC "-//W3C//DTD SVG 1.1//EN"
 "http://www.w3.org/Graphics/SVG/1.1/DTD/svg11.dtd">
<!-- Generated by graphviz version 2.43.0 (0)
 -->
<!-- Title: Graph::addData Pages: 1 -->
<svg width="308pt" height="66pt"
 viewBox="0.00 0.00 308.00 66.00" xmlns="http://www.w3.org/2000/svg" xmlns:xlink="http://www.w3.org/1999/xlink">
<g id="graph0" class="graph" transform="scale(1 1) rotate(0) translate(4 62)">
<title>Graph::addData</title>
<polygon fill="white" stroke="transparent" points="-4,4 -4,-62 304,-62 304,4 -4,4"/>
<!-- Node1 -->
<g id="node1" class="node">
<title>Node1</title>
<g id="a_node1"><a xlink:title="Adds a datapoint to be averaged. The max and min is also set using these.">
<polygon fill="#bfbfbf" stroke="black" points="207,-19.5 207,-38.5 300,-38.5 300,-19.5 207,-19.5"/>
<text text-anchor="middle" x="253.5" y="-26.5" font-family="Helvetica,sans-Serif" font-size="10.00">Graph::addData</text>
</a>
</g>
</g>
<!-- Node2 -->
<g id="node2" class="node">
<title>Node2</title>
<g id="a_node2"><a xlink:href="class_display_water_temp.html#a714a43a135f3042a5691a54bc12372cf" target="_top" xlink:title="Called whenever there is a new state available.">
<polygon fill="white" stroke="black" points="0,-38.5 0,-57.5 171,-57.5 171,-38.5 0,-38.5"/>
<text text-anchor="middle" x="85.5" y="-45.5" font-family="Helvetica,sans-Serif" font-size="10.00">DisplayWaterTemp::updateData</text>
</a>
</g>
</g>
<!-- Node1&#45;&gt;Node2 -->
<g id="edge1" class="edge">
<title>Node1&#45;&gt;Node2</title>
<path fill="none" stroke="midnightblue" d="M196.72,-35.38C188.03,-36.38 178.88,-37.43 169.74,-38.47"/>
<polygon fill="midnightblue" stroke="midnightblue" points="197.16,-38.86 206.7,-34.24 196.37,-31.9 197.16,-38.86"/>
</g>
<!-- Node3 -->
<g id="node3" class="node">
<title>Node3</title>
<g id="a_node3"><a xlink:href="class_display_voltage.html#a544eae066171862d032d44114821e197" target="_top" xlink:title="Called whenever there is a new state available.">
<polygon fill="white" stroke="black" points="9,-0.5 9,-19.5 162,-19.5 162,-0.5 9,-0.5"/>
<text text-anchor="middle" x="85.5" y="-7.5" font-family="Helvetica,sans-Serif" font-size="10.00">DisplayVoltage::updateData</text>
</a>
</g>
</g>
<!-- Node1&#45;&gt;Node3 -->
<g id="edge2" class="edge">
<title>Node1&#45;&gt;Node3</title>
<path fill="none" stroke="midnightblue" d="M196.72,-22.62C185.61,-21.34 173.76,-19.99 162.11,-18.65"/>
<polygon fill="midnightblue" stroke="midnightblue" points="196.37,-26.1 206.7,-23.76 197.16,-19.14 196.37,-26.1"/>
</g>
</g>
</svg>
