<?xml version="1.0" encoding="UTF-8" standalone="no"?>
<!DOCTYPE svg PUBLIC "-//W3C//DTD SVG 1.1//EN"
 "http://www.w3.org/Graphics/SVG/1.1/DTD/svg11.dtd">
<!-- Generated by graphviz version 2.43.0 (0)
 -->
<!-- Title: DisplayAbout Pages: 1 -->
<svg width="119pt" height="140pt"
 viewBox="0.00 0.00 119.00 140.00" xmlns="http://www.w3.org/2000/svg" xmlns:xlink="http://www.w3.org/1999/xlink">
<g id="graph0" class="graph" transform="scale(1 1) rotate(0) translate(4 136)">
<title>DisplayAbout</title>
<polygon fill="white" stroke="transparent" points="-4,4 -4,-136 115,-136 115,4 -4,4"/>
<!-- Node1 -->
<g id="node1" class="node">
<title>Node1</title>
<g id="a_node1"><a xlink:title="A simple about page that shows more info on the unit.">
<polygon fill="#bfbfbf" stroke="black" points="14.5,-0.5 14.5,-19.5 96.5,-19.5 96.5,-0.5 14.5,-0.5"/>
<text text-anchor="middle" x="55.5" y="-7.5" font-family="Helvetica,sans-Serif" font-size="10.00">DisplayAbout</text>
</a>
</g>
</g>
<!-- Node2 -->
<g id="node2" class="node">
<title>Node2</title>
<g id="a_node2"><a xlink:href="class_display_interval_tick.html" target="_top" xlink:title="Adds an interval based tick to the display class. The interval is reset whenever the display is activ...">
<polygon fill="white" stroke="black" points="0,-56.5 0,-75.5 111,-75.5 111,-56.5 0,-56.5"/>
<text text-anchor="middle" x="55.5" y="-63.5" font-family="Helvetica,sans-Serif" font-size="10.00">DisplayIntervalTick</text>
</a>
</g>
</g>
<!-- Node2&#45;&gt;Node1 -->
<g id="edge1" class="edge">
<title>Node2&#45;&gt;Node1</title>
<path fill="none" stroke="midnightblue" d="M55.5,-45.8C55.5,-36.91 55.5,-26.78 55.5,-19.75"/>
<polygon fill="midnightblue" stroke="midnightblue" points="52,-46.08 55.5,-56.08 59,-46.08 52,-46.08"/>
</g>
<!-- Node3 -->
<g id="node3" class="node">
<title>Node3</title>
<g id="a_node3"><a xlink:href="class_display.html" target="_top" xlink:title="Base class for each window that is displayed on the LCD.">
<polygon fill="white" stroke="black" points="29,-112.5 29,-131.5 82,-131.5 82,-112.5 29,-112.5"/>
<text text-anchor="middle" x="55.5" y="-119.5" font-family="Helvetica,sans-Serif" font-size="10.00">Display</text>
</a>
</g>
</g>
<!-- Node3&#45;&gt;Node2 -->
<g id="edge2" class="edge">
<title>Node3&#45;&gt;Node2</title>
<path fill="none" stroke="midnightblue" d="M55.5,-101.8C55.5,-92.91 55.5,-82.78 55.5,-75.75"/>
<polygon fill="midnightblue" stroke="midnightblue" points="52,-102.08 55.5,-112.08 59,-102.08 52,-102.08"/>
</g>
</g>
</svg>
