<?xml version="1.0" encoding="UTF-8" standalone="no"?>
<!DOCTYPE svg PUBLIC "-//W3C//DTD SVG 1.1//EN"
 "http://www.w3.org/Graphics/SVG/1.1/DTD/svg11.dtd">
<!-- Generated by graphviz version 2.43.0 (0)
 -->
<!-- Title: State Pages: 1 -->
<svg width="477pt" height="106pt"
 viewBox="0.00 0.00 476.50 106.00" xmlns="http://www.w3.org/2000/svg" xmlns:xlink="http://www.w3.org/1999/xlink">
<g id="graph0" class="graph" transform="scale(1 1) rotate(0) translate(4 102)">
<title>State</title>
<polygon fill="white" stroke="transparent" points="-4,4 -4,-102 472.5,-102 472.5,4 -4,4"/>
<!-- Node1 -->
<g id="node1" class="node">
<title>Node1</title>
<g id="a_node1"><a xlink:title="Struct to hold the current state and parameters of the vehicle.">
<polygon fill="#bfbfbf" stroke="black" points="206.5,-0.5 206.5,-19.5 248.5,-19.5 248.5,-0.5 206.5,-0.5"/>
<text text-anchor="middle" x="227.5" y="-7.5" font-family="Helvetica,sans-Serif" font-size="10.00">State</text>
</a>
</g>
</g>
<!-- Node2 -->
<g id="node2" class="node">
<title>Node2</title>
<g id="a_node2"><a xlink:title=" ">
<polygon fill="white" stroke="#bfbfbf" points="0,-78.5 0,-97.5 75,-97.5 75,-78.5 0,-78.5"/>
<text text-anchor="middle" x="37.5" y="-85.5" font-family="Helvetica,sans-Serif" font-size="10.00">EngineState</text>
</a>
</g>
</g>
<!-- Node2&#45;&gt;Node1 -->
<g id="edge1" class="edge">
<title>Node2&#45;&gt;Node1</title>
<path fill="none" stroke="#9a32cd" stroke-dasharray="5,2" d="M44.51,-68.8C49.56,-58.13 57.45,-45.36 68.5,-38 90.76,-23.18 168.31,-15.44 206.26,-12.47"/>
<polygon fill="#9a32cd" stroke="#9a32cd" points="41.23,-67.56 40.52,-78.13 47.67,-70.31 41.23,-67.56"/>
<text text-anchor="middle" x="99.5" y="-46.5" font-family="Helvetica,sans-Serif" font-size="10.00"> engineState</text>
</g>
<!-- Node3 -->
<g id="node3" class="node">
<title>Node3</title>
<g id="a_node3"><a xlink:title=" ">
<polygon fill="white" stroke="#bfbfbf" points="93.5,-78.5 93.5,-97.5 149.5,-97.5 149.5,-78.5 93.5,-78.5"/>
<text text-anchor="middle" x="121.5" y="-85.5" font-family="Helvetica,sans-Serif" font-size="10.00">uint16_t</text>
</a>
</g>
</g>
<!-- Node3&#45;&gt;Node1 -->
<g id="edge2" class="edge">
<title>Node3&#45;&gt;Node1</title>
<path fill="none" stroke="#9a32cd" stroke-dasharray="5,2" d="M129.56,-69.12C135.02,-58.79 143.13,-46.23 153.5,-38 168.92,-25.75 190.41,-18.74 206.26,-14.95"/>
<polygon fill="#9a32cd" stroke="#9a32cd" points="126.4,-67.62 125.15,-78.15 132.69,-70.7 126.4,-67.62"/>
<text text-anchor="middle" x="165" y="-46.5" font-family="Helvetica,sans-Serif" font-size="10.00"> rpm</text>
</g>
<!-- Node4 -->
<g id="node4" class="node">
<title>Node4</title>
<g id="a_node4"><a xlink:title=" ">
<polygon fill="white" stroke="#bfbfbf" points="167.5,-78.5 167.5,-97.5 223.5,-97.5 223.5,-78.5 167.5,-78.5"/>
<text text-anchor="middle" x="195.5" y="-85.5" font-family="Helvetica,sans-Serif" font-size="10.00">uint32_t</text>
</a>
</g>
</g>
<!-- Node4&#45;&gt;Node1 -->
<g id="edge3" class="edge">
<title>Node4&#45;&gt;Node1</title>
<path fill="none" stroke="#9a32cd" stroke-dasharray="5,2" d="M185.63,-69.06C181.71,-59.38 179.24,-47.51 184.5,-38 189.19,-29.51 197.79,-23.34 206.07,-19.05"/>
<polygon fill="#9a32cd" stroke="#9a32cd" points="182.51,-70.64 189.98,-78.15 188.83,-67.62 182.51,-70.64"/>
<text text-anchor="middle" x="217" y="-52" font-family="Helvetica,sans-Serif" font-size="10.00"> totalMinutes</text>
<text text-anchor="middle" x="217" y="-41" font-family="Helvetica,sans-Serif" font-size="10.00">tripMinutes</text>
</g>
<!-- Node5 -->
<g id="node5" class="node">
<title>Node5</title>
<g id="a_node5"><a xlink:title=" ">
<polygon fill="white" stroke="#bfbfbf" points="252.5,-78.5 252.5,-97.5 290.5,-97.5 290.5,-78.5 252.5,-78.5"/>
<text text-anchor="middle" x="271.5" y="-85.5" font-family="Helvetica,sans-Serif" font-size="10.00">bool</text>
</a>
</g>
</g>
<!-- Node5&#45;&gt;Node1 -->
<g id="edge4" class="edge">
<title>Node5&#45;&gt;Node1</title>
<path fill="none" stroke="#9a32cd" stroke-dasharray="5,2" d="M264.64,-68.75C260.76,-59.28 255.48,-47.69 249.5,-38 245.44,-31.41 239.94,-24.66 235.45,-19.56"/>
<polygon fill="#9a32cd" stroke="#9a32cd" points="261.49,-70.31 268.4,-78.34 268.01,-67.75 261.49,-70.31"/>
<text text-anchor="middle" x="288.5" y="-46.5" font-family="Helvetica,sans-Serif" font-size="10.00"> oilPressure</text>
</g>
<!-- Node6 -->
<g id="node6" class="node">
<title>Node6</title>
<g id="a_node6"><a xlink:title=" ">
<polygon fill="white" stroke="#bfbfbf" points="327.5,-78.5 327.5,-97.5 377.5,-97.5 377.5,-78.5 327.5,-78.5"/>
<text text-anchor="middle" x="352.5" y="-85.5" font-family="Helvetica,sans-Serif" font-size="10.00">uint8_t</text>
</a>
</g>
</g>
<!-- Node6&#45;&gt;Node1 -->
<g id="edge5" class="edge">
<title>Node6&#45;&gt;Node1</title>
<path fill="none" stroke="#9a32cd" stroke-dasharray="5,2" d="M345.19,-69.22C340.03,-58.72 332.12,-45.96 321.5,-38 300.03,-21.91 269.26,-15.4 248.84,-12.77"/>
<polygon fill="#9a32cd" stroke="#9a32cd" points="342.01,-70.69 349.31,-78.37 348.4,-67.82 342.01,-70.69"/>
<text text-anchor="middle" x="359.5" y="-46.5" font-family="Helvetica,sans-Serif" font-size="10.00"> voltage</text>
</g>
<!-- Node7 -->
<g id="node7" class="node">
<title>Node7</title>
<g id="a_node7"><a xlink:title=" ">
<polygon fill="white" stroke="#bfbfbf" points="395.5,-78.5 395.5,-97.5 445.5,-97.5 445.5,-78.5 395.5,-78.5"/>
<text text-anchor="middle" x="420.5" y="-85.5" font-family="Helvetica,sans-Serif" font-size="10.00">int16_t</text>
</a>
</g>
</g>
<!-- Node7&#45;&gt;Node1 -->
<g id="edge6" class="edge">
<title>Node7&#45;&gt;Node1</title>
<path fill="none" stroke="#9a32cd" stroke-dasharray="5,2" d="M411.71,-69.47C405.37,-58.66 395.76,-45.48 383.5,-38 361.15,-24.37 285.68,-16.07 248.52,-12.72"/>
<polygon fill="#9a32cd" stroke="#9a32cd" points="408.77,-71.38 416.61,-78.5 414.92,-68.04 408.77,-71.38"/>
<text text-anchor="middle" x="436.5" y="-46.5" font-family="Helvetica,sans-Serif" font-size="10.00"> temperature</text>
</g>
</g>
</svg>
