<?xml version="1.0" encoding="UTF-8" standalone="no"?>
<!DOCTYPE svg PUBLIC "-//W3C//DTD SVG 1.1//EN"
 "http://www.w3.org/Graphics/SVG/1.1/DTD/svg11.dtd">
<!-- Generated by graphviz version 2.43.0 (0)
 -->
<!-- Title: DisplayAbout Pages: 1 -->
<svg width="176pt" height="209pt"
 viewBox="0.00 0.00 176.00 209.00" xmlns="http://www.w3.org/2000/svg" xmlns:xlink="http://www.w3.org/1999/xlink">
<g id="graph0" class="graph" transform="scale(1 1) rotate(0) translate(4 205)">
<title>DisplayAbout</title>
<polygon fill="white" stroke="transparent" points="-4,4 -4,-205 172,-205 172,4 -4,4"/>
<!-- Node1 -->
<g id="node1" class="node">
<title>Node1</title>
<g id="a_node1"><a xlink:title="A simple about page that shows more info on the unit.">
<polygon fill="#bfbfbf" stroke="black" points="24,-0.5 24,-19.5 106,-19.5 106,-0.5 24,-0.5"/>
<text text-anchor="middle" x="65" y="-7.5" font-family="Helvetica,sans-Serif" font-size="10.00">DisplayAbout</text>
</a>
</g>
</g>
<!-- Node2 -->
<g id="node2" class="node">
<title>Node2</title>
<g id="a_node2"><a xlink:href="class_display_interval_tick.html" target="_top" xlink:title="Adds an interval based tick to the display class. The interval is reset whenever the display is activ...">
<polygon fill="white" stroke="black" points="9.5,-57.5 9.5,-76.5 120.5,-76.5 120.5,-57.5 9.5,-57.5"/>
<text text-anchor="middle" x="65" y="-64.5" font-family="Helvetica,sans-Serif" font-size="10.00">DisplayIntervalTick</text>
</a>
</g>
</g>
<!-- Node2&#45;&gt;Node1 -->
<g id="edge1" class="edge">
<title>Node2&#45;&gt;Node1</title>
<path fill="none" stroke="midnightblue" d="M65,-47.12C65,-37.82 65,-27.06 65,-19.71"/>
<polygon fill="midnightblue" stroke="midnightblue" points="61.5,-47.41 65,-57.41 68.5,-47.41 61.5,-47.41"/>
</g>
<!-- Node3 -->
<g id="node3" class="node">
<title>Node3</title>
<g id="a_node3"><a xlink:href="class_display.html" target="_top" xlink:title="Base class for each window that is displayed on the LCD.">
<polygon fill="white" stroke="black" points="38.5,-114.5 38.5,-133.5 91.5,-133.5 91.5,-114.5 38.5,-114.5"/>
<text text-anchor="middle" x="65" y="-121.5" font-family="Helvetica,sans-Serif" font-size="10.00">Display</text>
</a>
</g>
</g>
<!-- Node3&#45;&gt;Node2 -->
<g id="edge2" class="edge">
<title>Node3&#45;&gt;Node2</title>
<path fill="none" stroke="midnightblue" d="M65,-104.12C65,-94.82 65,-84.06 65,-76.71"/>
<polygon fill="midnightblue" stroke="midnightblue" points="61.5,-104.41 65,-114.41 68.5,-104.41 61.5,-104.41"/>
</g>
<!-- Node4 -->
<g id="node4" class="node">
<title>Node4</title>
<g id="a_node4"><a xlink:title=" ">
<polygon fill="white" stroke="#bfbfbf" points="0,-181.5 0,-200.5 38,-200.5 38,-181.5 0,-181.5"/>
<text text-anchor="middle" x="19" y="-188.5" font-family="Helvetica,sans-Serif" font-size="10.00">bool</text>
</a>
</g>
</g>
<!-- Node4&#45;&gt;Node3 -->
<g id="edge3" class="edge">
<title>Node4&#45;&gt;Node3</title>
<path fill="none" stroke="#9a32cd" stroke-dasharray="5,2" d="M31.1,-172.9C40.04,-160.27 51.83,-143.6 58.89,-133.63"/>
<polygon fill="#9a32cd" stroke="#9a32cd" points="28.12,-171.05 25.2,-181.23 33.84,-175.09 28.12,-171.05"/>
<text text-anchor="middle" x="62" y="-155" font-family="Helvetica,sans-Serif" font-size="10.00"> active</text>
</g>
<!-- Node5 -->
<g id="node5" class="node">
<title>Node5</title>
<g id="a_node5"><a xlink:title=" ">
<polygon fill="white" stroke="#bfbfbf" points="56,-181.5 56,-200.5 168,-200.5 168,-181.5 56,-181.5"/>
<text text-anchor="middle" x="112" y="-188.5" font-family="Helvetica,sans-Serif" font-size="10.00">LiquidCrystal_I2C &amp;</text>
</a>
</g>
</g>
<!-- Node5&#45;&gt;Node3 -->
<g id="edge4" class="edge">
<title>Node5&#45;&gt;Node3</title>
<path fill="none" stroke="#9a32cd" stroke-dasharray="5,2" d="M99.64,-172.9C90.51,-160.27 78.45,-143.6 71.24,-133.63"/>
<polygon fill="#9a32cd" stroke="#9a32cd" points="96.97,-175.18 105.66,-181.23 102.64,-171.08 96.97,-175.18"/>
<text text-anchor="middle" x="100" y="-155" font-family="Helvetica,sans-Serif" font-size="10.00"> lcd</text>
</g>
</g>
</svg>
