<?xml version="1.0" encoding="UTF-8" standalone="no"?>
<!DOCTYPE svg PUBLIC "-//W3C//DTD SVG 1.1//EN"
 "http://www.w3.org/Graphics/SVG/1.1/DTD/svg11.dtd">
<!-- Generated by graphviz version 2.43.0 (0)
 -->
<!-- Title: Display::rightJustify Pages: 1 -->
<svg width="691pt" height="66pt"
 viewBox="0.00 0.00 691.00 66.00" xmlns="http://www.w3.org/2000/svg" xmlns:xlink="http://www.w3.org/1999/xlink">
<g id="graph0" class="graph" transform="scale(1 1) rotate(0) translate(4 62)">
<title>Display::rightJustify</title>
<polygon fill="white" stroke="transparent" points="-4,4 -4,-62 687,-62 687,4 -4,4"/>
<!-- Node1 -->
<g id="node1" class="node">
<title>Node1</title>
<g id="a_node1"><a xlink:title="Right justifies and prints a number to the display.">
<polygon fill="#bfbfbf" stroke="black" points="572,-19.5 572,-38.5 683,-38.5 683,-19.5 572,-19.5"/>
<text text-anchor="middle" x="627.5" y="-26.5" font-family="Helvetica,sans-Serif" font-size="10.00">Display::rightJustify</text>
</a>
</g>
</g>
<!-- Node2 -->
<g id="node2" class="node">
<title>Node2</title>
<g id="a_node2"><a xlink:href="class_display_water_temp.html#a60c70c749333df65746e8334728b1d67" target="_top" xlink:title="Called whenever data that the system might have on the screen is updated.">
<polygon fill="white" stroke="black" points="372,-38.5 372,-57.5 536,-57.5 536,-38.5 372,-38.5"/>
<text text-anchor="middle" x="454" y="-45.5" font-family="Helvetica,sans-Serif" font-size="10.00">DisplayWaterTemp::drawState</text>
</a>
</g>
</g>
<!-- Node1&#45;&gt;Node2 -->
<g id="edge1" class="edge">
<title>Node1&#45;&gt;Node2</title>
<path fill="none" stroke="midnightblue" d="M561.72,-36.18C553.34,-37.1 544.69,-38.06 536.09,-39.02"/>
<polygon fill="midnightblue" stroke="midnightblue" points="562.21,-39.64 571.76,-35.06 561.44,-32.69 562.21,-39.64"/>
</g>
<!-- Node3 -->
<g id="node3" class="node">
<title>Node3</title>
<g id="a_node3"><a xlink:href="class_display.html#afcc251bd74c5b52808e5fb0ee2431d7c" target="_top" xlink:title="Prints a number in tenths.">
<polygon fill="white" stroke="black" points="397,-0.5 397,-19.5 511,-19.5 511,-0.5 397,-0.5"/>
<text text-anchor="middle" x="454" y="-7.5" font-family="Helvetica,sans-Serif" font-size="10.00">Display::drawTenths</text>
</a>
</g>
</g>
<!-- Node1&#45;&gt;Node3 -->
<g id="edge2" class="edge">
<title>Node1&#45;&gt;Node3</title>
<path fill="none" stroke="midnightblue" d="M561.62,-21.81C545.05,-19.98 527.38,-18.02 511.28,-16.23"/>
<polygon fill="midnightblue" stroke="midnightblue" points="561.44,-25.31 571.76,-22.94 562.21,-18.36 561.44,-25.31"/>
</g>
<!-- Node4 -->
<g id="node4" class="node">
<title>Node4</title>
<g id="a_node4"><a xlink:href="class_display_voltage.html#a450e426d3fcbdd74702f63b2621b382c" target="_top" xlink:title="Called whenever data that the system might have on the screen is updated.">
<polygon fill="white" stroke="black" points="190,-0.5 190,-19.5 336,-19.5 336,-0.5 190,-0.5"/>
<text text-anchor="middle" x="263" y="-7.5" font-family="Helvetica,sans-Serif" font-size="10.00">DisplayVoltage::drawState</text>
</a>
</g>
</g>
<!-- Node3&#45;&gt;Node4 -->
<g id="edge3" class="edge">
<title>Node3&#45;&gt;Node4</title>
<path fill="none" stroke="midnightblue" d="M386.79,-10C370.4,-10 352.77,-10 336.12,-10"/>
<polygon fill="midnightblue" stroke="midnightblue" points="386.81,-13.5 396.81,-10 386.81,-6.5 386.81,-13.5"/>
</g>
<!-- Node5 -->
<g id="node5" class="node">
<title>Node5</title>
<g id="a_node5"><a xlink:href="class_display_voltage.html#a667bfa1591ef2fcceb1d0bdafb7db4ca" target="_top" xlink:title="Method that is called on the interval tick.">
<polygon fill="white" stroke="black" points="0,-0.5 0,-19.5 154,-19.5 154,-0.5 0,-0.5"/>
<text text-anchor="middle" x="77" y="-7.5" font-family="Helvetica,sans-Serif" font-size="10.00">DisplayVoltage::intervalTick</text>
</a>
</g>
</g>
<!-- Node4&#45;&gt;Node5 -->
<g id="edge4" class="edge">
<title>Node4&#45;&gt;Node5</title>
<path fill="none" stroke="midnightblue" d="M179.59,-10C171.15,-10 162.6,-10 154.23,-10"/>
<polygon fill="midnightblue" stroke="midnightblue" points="179.81,-13.5 189.81,-10 179.81,-6.5 179.81,-13.5"/>
</g>
</g>
</svg>
