<?xml version="1.0" encoding="UTF-8" standalone="no"?>
<!DOCTYPE svg PUBLIC "-//W3C//DTD SVG 1.1//EN"
 "http://www.w3.org/Graphics/SVG/1.1/DTD/svg11.dtd">
<!-- Generated by graphviz version 2.43.0 (0)
 -->
<!-- Title: TractorWatchdog/defines.h Pages: 1 -->
<!--zoomable 196 -->
<svg id="main" version="1.1" xmlns="http://www.w3.org/2000/svg" xmlns:xlink="http://www.w3.org/1999/xlink" xml:space="preserve" onload="init(evt)">
<style type="text/css"><![CDATA[
.edge:hover path { stroke: red; }
.edge:hover polygon { stroke: red; fill: red; }
]]></style>
<script type="text/javascript"><![CDATA[
var edges = document.getElementsByTagName('g');
if (edges && edges.length) {
  for (var i=0;i<edges.length;i++) {
    if (edges[i].id.substr(0,4)=='edge') {
      edges[i].setAttribute('class','edge');
    }
  }
}
]]></script>
        <defs>
                <circle id="rim" cx="0" cy="0" r="7"/>
                <circle id="rim2" cx="0" cy="0" r="3.5"/>
                <g id="zoomPlus">
                        <use xlink:href="#rim" fill="#404040">
                                <set attributeName="fill" to="#808080" begin="zoomplus.mouseover" end="zoomplus.mouseout"/>
                        </use>
                        <path d="M-4,0h8M0,-4v8" fill="none" stroke="white" stroke-width="1.5" pointer-events="none"/>
                </g>
                <g id="zoomMin">
                        <use xlink:href="#rim" fill="#404040">
                                <set attributeName="fill" to="#808080" begin="zoomminus.mouseover" end="zoomminus.mouseout"/>
                        </use>
                        <path d="M-4,0h8" fill="none" stroke="white" stroke-width="1.5" pointer-events="none"/>
                </g>
                <g id="dirArrow">
                        <path fill="none" stroke="white" stroke-width="1.5" d="M0,-3.0v7 M-2.5,-0.5L0,-3.0L2.5,-0.5"/>
                </g>
               <g id="resetDef">
                       <use xlink:href="#rim2" fill="#404040">
                               <set attributeName="fill" to="#808080" begin="reset.mouseover" end="reset.mouseout"/>
                       </use>
               </g>
        </defs>

<script type="text/javascript">
var viewWidth = 915;
var viewHeight = 196;
var sectionId = 'dynsection-1';
</script>
<script xlink:href="svgpan.js"/>
<svg id="graph" class="graph">
<g id="viewport">
<title>TractorWatchdog/defines.h</title>
<polygon fill="white" stroke="transparent" points="-4,4 -4,-192 910.54,-192 910.54,4 -4,4"/>
<!-- Node1 -->
<g id="node1" class="node">
<title>Node1</title>
<g id="a_node1"><a xlink:title="Pin and other definitions.">
<polygon fill="#bfbfbf" stroke="black" points="376.04,-168.5 376.04,-187.5 521.04,-187.5 521.04,-168.5 376.04,-168.5"/>
<text text-anchor="middle" x="448.54" y="-175.5" font-family="Helvetica,sans-Serif" font-size="10.00">TractorWatchdog/defines.h</text>
</a>
</g>
</g>
<!-- Node2 -->
<g id="node2" class="node">
<title>Node2</title>
<g id="a_node2"><a xlink:href="button_8h.html" target="_top" xlink:title="File that manages input from the button.">
<polygon fill="white" stroke="black" points="329.04,-112.5 329.04,-131.5 470.04,-131.5 470.04,-112.5 329.04,-112.5"/>
<text text-anchor="middle" x="399.54" y="-119.5" font-family="Helvetica,sans-Serif" font-size="10.00">TractorWatchdog/button.h</text>
</a>
</g>
</g>
<!-- Node1&#45;&gt;Node2 -->
<g id="edge1" class="edge">
<title>Node1&#45;&gt;Node2</title>
<path fill="none" stroke="midnightblue" d="M433.5,-160.43C424.91,-150.97 414.49,-139.48 407.48,-131.75"/>
<polygon fill="midnightblue" stroke="midnightblue" points="431.13,-163.03 440.44,-168.08 436.32,-158.33 431.13,-163.03"/>
</g>
<!-- Node4 -->
<g id="node4" class="node">
<title>Node4</title>
<g id="a_node4"><a xlink:href="_tractor_watchdog_8ino.html" target="_top" xlink:title="Main code for the Tractor Enginge Watchdog.">
<polygon fill="white" stroke="black" points="251.54,-0.5 251.54,-19.5 451.54,-19.5 451.54,-0.5 251.54,-0.5"/>
<text text-anchor="middle" x="351.54" y="-7.5" font-family="Helvetica,sans-Serif" font-size="10.00">TractorWatchdog/TractorWatchdog.ino</text>
</a>
</g>
</g>
<!-- Node1&#45;&gt;Node4 -->
<g id="edge17" class="edge">
<title>Node1&#45;&gt;Node4</title>
<path fill="none" stroke="midnightblue" d="M365.88,-166.51C310.96,-154.66 243.18,-129.47 210.54,-76 191.22,-44.37 233.33,-27.96 276.46,-19.55"/>
<polygon fill="midnightblue" stroke="midnightblue" points="365.47,-170 375.97,-168.57 366.87,-163.14 365.47,-170"/>
</g>
<!-- Node5 -->
<g id="node5" class="node">
<title>Node5</title>
<g id="a_node5"><a xlink:href="display_8h.html" target="_top" xlink:title="Header file for the display classes.">
<polygon fill="white" stroke="black" points="428.04,-56.5 428.04,-75.5 571.04,-75.5 571.04,-56.5 428.04,-56.5"/>
<text text-anchor="middle" x="499.54" y="-63.5" font-family="Helvetica,sans-Serif" font-size="10.00">TractorWatchdog/display.h</text>
</a>
</g>
</g>
<!-- Node1&#45;&gt;Node5 -->
<g id="edge4" class="edge">
<title>Node1&#45;&gt;Node5</title>
<path fill="none" stroke="midnightblue" d="M461.35,-160.2C467.16,-152.01 473.79,-141.83 478.54,-132 487.83,-112.78 494.43,-88.45 497.54,-75.7"/>
<polygon fill="midnightblue" stroke="midnightblue" points="458.37,-158.34 455.27,-168.47 464.01,-162.48 458.37,-158.34"/>
</g>
<!-- Node7 -->
<g id="node7" class="node">
<title>Node7</title>
<g id="a_node7"><a xlink:href="motor_8h.html" target="_top" xlink:title="File for the validation and engine shutdown components.">
<polygon fill="white" stroke="black" points="20.54,-112.5 20.54,-131.5 158.54,-131.5 158.54,-112.5 20.54,-112.5"/>
<text text-anchor="middle" x="89.54" y="-119.5" font-family="Helvetica,sans-Serif" font-size="10.00">TractorWatchdog/motor.h</text>
</a>
</g>
</g>
<!-- Node1&#45;&gt;Node7 -->
<g id="edge7" class="edge">
<title>Node1&#45;&gt;Node7</title>
<path fill="none" stroke="midnightblue" d="M381.5,-166.92C313.68,-156.71 209.98,-141.12 146.15,-131.52"/>
<polygon fill="midnightblue" stroke="midnightblue" points="381.24,-170.42 391.65,-168.44 382.28,-163.49 381.24,-170.42"/>
</g>
<!-- Node9 -->
<g id="node9" class="node">
<title>Node9</title>
<g id="a_node9"><a xlink:href="sensors_8h.html" target="_top" xlink:title="File that contains code for sensors.">
<polygon fill="white" stroke="black" points="754.04,-56.5 754.04,-75.5 901.04,-75.5 901.04,-56.5 754.04,-56.5"/>
<text text-anchor="middle" x="827.54" y="-63.5" font-family="Helvetica,sans-Serif" font-size="10.00">TractorWatchdog/sensors.h</text>
</a>
</g>
</g>
<!-- Node1&#45;&gt;Node9 -->
<g id="edge10" class="edge">
<title>Node1&#45;&gt;Node9</title>
<path fill="none" stroke="midnightblue" d="M531.13,-168.96C581.85,-162.43 647.59,-151.08 703.54,-132 746.32,-117.4 792.39,-89.7 814.39,-75.65"/>
<polygon fill="midnightblue" stroke="midnightblue" points="530.68,-165.49 521.19,-170.2 531.55,-172.44 530.68,-165.49"/>
</g>
<!-- Node11 -->
<g id="node11" class="node">
<title>Node11</title>
<g id="a_node11"><a xlink:href="state_8h.html" target="_top" xlink:title="A class for the current system state.">
<polygon fill="white" stroke="black" points="560.54,-112.5 560.54,-131.5 694.54,-131.5 694.54,-112.5 560.54,-112.5"/>
<text text-anchor="middle" x="627.54" y="-119.5" font-family="Helvetica,sans-Serif" font-size="10.00">TractorWatchdog/state.h</text>
</a>
</g>
</g>
<!-- Node1&#45;&gt;Node11 -->
<g id="edge13" class="edge">
<title>Node1&#45;&gt;Node11</title>
<path fill="none" stroke="midnightblue" d="M486.87,-165.44C520.62,-155.26 568.98,-140.66 599.31,-131.52"/>
<polygon fill="midnightblue" stroke="midnightblue" points="485.46,-162.2 476.9,-168.44 487.48,-168.91 485.46,-162.2"/>
</g>
<!-- Node3 -->
<g id="node3" class="node">
<title>Node3</title>
<g id="a_node3"><a xlink:href="button_8cpp.html" target="_top" xlink:title="File that manages input from the button.">
<polygon fill="white" stroke="black" points="219.54,-56.5 219.54,-75.5 371.54,-75.5 371.54,-56.5 219.54,-56.5"/>
<text text-anchor="middle" x="295.54" y="-63.5" font-family="Helvetica,sans-Serif" font-size="10.00">TractorWatchdog/button.cpp</text>
</a>
</g>
</g>
<!-- Node2&#45;&gt;Node3 -->
<g id="edge2" class="edge">
<title>Node2&#45;&gt;Node3</title>
<path fill="none" stroke="midnightblue" d="M373.71,-107.59C354.48,-97.61 328.79,-84.27 312.2,-75.65"/>
<polygon fill="midnightblue" stroke="midnightblue" points="372.34,-110.82 382.83,-112.32 375.56,-104.61 372.34,-110.82"/>
</g>
<!-- Node2&#45;&gt;Node4 -->
<g id="edge3" class="edge">
<title>Node2&#45;&gt;Node4</title>
<path fill="none" stroke="midnightblue" d="M395.62,-102.46C392.46,-89.17 387.4,-71.04 380.54,-56 374.36,-42.47 364.57,-28.28 358.11,-19.53"/>
<polygon fill="midnightblue" stroke="midnightblue" points="392.23,-103.31 397.83,-112.3 399.06,-101.78 392.23,-103.31"/>
</g>
<!-- Node5&#45;&gt;Node4 -->
<g id="edge6" class="edge">
<title>Node5&#45;&gt;Node4</title>
<path fill="none" stroke="midnightblue" d="M466.39,-52.91C438.56,-42.75 399.52,-28.51 374.88,-19.52"/>
<polygon fill="midnightblue" stroke="midnightblue" points="465.49,-56.3 476.08,-56.44 467.89,-49.73 465.49,-56.3"/>
</g>
<!-- Node6 -->
<g id="node6" class="node">
<title>Node6</title>
<g id="a_node6"><a xlink:href="display_8cpp.html" target="_top" xlink:title="Header file for the display classes.">
<polygon fill="white" stroke="black" points="470.04,-0.5 470.04,-19.5 625.04,-19.5 625.04,-0.5 470.04,-0.5"/>
<text text-anchor="middle" x="547.54" y="-7.5" font-family="Helvetica,sans-Serif" font-size="10.00">TractorWatchdog/display.cpp</text>
</a>
</g>
</g>
<!-- Node5&#45;&gt;Node6 -->
<g id="edge5" class="edge">
<title>Node5&#45;&gt;Node6</title>
<path fill="none" stroke="midnightblue" d="M514.26,-48.43C522.68,-38.97 532.88,-27.48 539.76,-19.75"/>
<polygon fill="midnightblue" stroke="midnightblue" points="511.49,-46.28 507.46,-56.08 516.72,-50.93 511.49,-46.28"/>
</g>
<!-- Node7&#45;&gt;Node4 -->
<g id="edge9" class="edge">
<title>Node7&#45;&gt;Node4</title>
<path fill="none" stroke="midnightblue" d="M52.47,-108.91C21.94,-97.05 -13.46,-77.63 5.54,-56 21.68,-37.62 155.15,-24.52 251.5,-17.36"/>
<polygon fill="midnightblue" stroke="midnightblue" points="51.54,-112.3 62.13,-112.49 53.97,-105.74 51.54,-112.3"/>
</g>
<!-- Node8 -->
<g id="node8" class="node">
<title>Node8</title>
<g id="a_node8"><a xlink:href="motor_8cpp.html" target="_top" xlink:title="File for the validation and engine shutdown components.">
<polygon fill="white" stroke="black" points="15.04,-56.5 15.04,-75.5 164.04,-75.5 164.04,-56.5 15.04,-56.5"/>
<text text-anchor="middle" x="89.54" y="-63.5" font-family="Helvetica,sans-Serif" font-size="10.00">TractorWatchdog/motor.cpp</text>
</a>
</g>
</g>
<!-- Node7&#45;&gt;Node8 -->
<g id="edge8" class="edge">
<title>Node7&#45;&gt;Node8</title>
<path fill="none" stroke="midnightblue" d="M89.54,-101.8C89.54,-92.91 89.54,-82.78 89.54,-75.75"/>
<polygon fill="midnightblue" stroke="midnightblue" points="86.04,-102.08 89.54,-112.08 93.04,-102.08 86.04,-102.08"/>
</g>
<!-- Node9&#45;&gt;Node4 -->
<g id="edge12" class="edge">
<title>Node9&#45;&gt;Node4</title>
<path fill="none" stroke="midnightblue" d="M743.81,-55.5C654.14,-45.33 513.12,-29.33 426.83,-19.54"/>
<polygon fill="midnightblue" stroke="midnightblue" points="743.61,-59 753.94,-56.65 744.4,-52.05 743.61,-59"/>
</g>
<!-- Node10 -->
<g id="node10" class="node">
<title>Node10</title>
<g id="a_node10"><a xlink:title=" ">
<polygon fill="white" stroke="#bfbfbf" points="748.54,-0.5 748.54,-19.5 906.54,-19.5 906.54,-0.5 748.54,-0.5"/>
<text text-anchor="middle" x="827.54" y="-7.5" font-family="Helvetica,sans-Serif" font-size="10.00">TractorWatchdog/sensors.cpp</text>
</a>
</g>
</g>
<!-- Node9&#45;&gt;Node10 -->
<g id="edge11" class="edge">
<title>Node9&#45;&gt;Node10</title>
<path fill="none" stroke="midnightblue" d="M827.54,-45.8C827.54,-36.91 827.54,-26.78 827.54,-19.75"/>
<polygon fill="midnightblue" stroke="midnightblue" points="824.04,-46.08 827.54,-56.08 831.04,-46.08 824.04,-46.08"/>
</g>
<!-- Node11&#45;&gt;Node5 -->
<g id="edge14" class="edge">
<title>Node11&#45;&gt;Node5</title>
<path fill="none" stroke="midnightblue" d="M597.91,-108.5C573.92,-98.38 540.75,-84.39 519.72,-75.52"/>
<polygon fill="midnightblue" stroke="midnightblue" points="596.68,-111.78 607.25,-112.44 599.4,-105.33 596.68,-111.78"/>
</g>
<!-- Node11&#45;&gt;Node9 -->
<g id="edge15" class="edge">
<title>Node11&#45;&gt;Node9</title>
<path fill="none" stroke="midnightblue" d="M668.91,-109.83C706.67,-99.63 761.68,-84.78 795.99,-75.52"/>
<polygon fill="midnightblue" stroke="midnightblue" points="667.97,-106.46 659.23,-112.44 669.79,-113.22 667.97,-106.46"/>
</g>
<!-- Node12 -->
<g id="node12" class="node">
<title>Node12</title>
<g id="a_node12"><a xlink:href="state_8cpp.html" target="_top" xlink:title="Cpntains code realting to the system state.">
<polygon fill="white" stroke="black" points="589.54,-56.5 589.54,-75.5 735.54,-75.5 735.54,-56.5 589.54,-56.5"/>
<text text-anchor="middle" x="662.54" y="-63.5" font-family="Helvetica,sans-Serif" font-size="10.00">TractorWatchdog/state.cpp</text>
</a>
</g>
</g>
<!-- Node11&#45;&gt;Node12 -->
<g id="edge16" class="edge">
<title>Node11&#45;&gt;Node12</title>
<path fill="none" stroke="midnightblue" d="M638.84,-103.57C644.86,-94.27 652,-83.25 656.86,-75.75"/>
<polygon fill="midnightblue" stroke="midnightblue" points="635.82,-101.79 633.32,-112.08 641.69,-105.6 635.82,-101.79"/>
</g>
</g>
</svg>
        <g id="navigator" transform="translate(0 0)" fill="#404254">
                <rect fill="#f2f5e9" fill-opacity="0.5" stroke="#606060" stroke-width=".5" x="0" y="0" width="60" height="60"/>
                <use id="zoomplus" xlink:href="#zoomPlus" x="17" y="9" onmousedown="handleZoom(evt,'in')"/>
                <use id="zoomminus" xlink:href="#zoomMin" x="42" y="9" onmousedown="handleZoom(evt,'out')"/>
                <use id="reset" xlink:href="#resetDef" x="30" y="36" onmousedown="handleReset()"/>
                <g id="arrowUp" xlink:href="#dirArrow" transform="translate(30 24)" onmousedown="handlePan(0,-1)">
                  <use xlink:href="#rim" fill="#404040">
                        <set attributeName="fill" to="#808080" begin="arrowUp.mouseover" end="arrowUp.mouseout"/>
                  </use>
                  <path fill="none" stroke="white" stroke-width="1.5" d="M0,-3.0v7 M-2.5,-0.5L0,-3.0L2.5,-0.5"/>
                </g>
                <g id="arrowRight" xlink:href="#dirArrow" transform="rotate(90) translate(36 -43)" onmousedown="handlePan(1,0)">
                  <use xlink:href="#rim" fill="#404040">
                        <set attributeName="fill" to="#808080" begin="arrowRight.mouseover" end="arrowRight.mouseout"/>
                  </use>
                  <path fill="none" stroke="white" stroke-width="1.5" d="M0,-3.0v7 M-2.5,-0.5L0,-3.0L2.5,-0.5"/>
                </g>
                <g id="arrowDown" xlink:href="#dirArrow" transform="rotate(180) translate(-30 -48)" onmousedown="handlePan(0,1)">
                  <use xlink:href="#rim" fill="#404040">
                        <set attributeName="fill" to="#808080" begin="arrowDown.mouseover" end="arrowDown.mouseout"/>
                  </use>
                  <path fill="none" stroke="white" stroke-width="1.5" d="M0,-3.0v7 M-2.5,-0.5L0,-3.0L2.5,-0.5"/>
                </g>
                <g id="arrowLeft" xlink:href="#dirArrow" transform="rotate(270) translate(-36 17)" onmousedown="handlePan(-1,0)">
                  <use xlink:href="#rim" fill="#404040">
                        <set attributeName="fill" to="#808080" begin="arrowLeft.mouseover" end="arrowLeft.mouseout"/>
                  </use>
                  <path fill="none" stroke="white" stroke-width="1.5" d="M0,-3.0v7 M-2.5,-0.5L0,-3.0L2.5,-0.5"/>
                </g>
        </g>
        <svg viewBox="0 0 15 15" width="100%" height="30px" preserveAspectRatio="xMaxYMin meet">
         <g id="arrow_out" transform="scale(0.3 0.3)">
          <a xlink:href="defines_8h__dep__incl_org.svg" target="_base">
           <rect id="button" ry="5" rx="5" y="6" x="6" height="38" width="38"
                fill="#f2f5e9" fill-opacity="0.5" stroke="#606060" stroke-width="1.0"/>
           <path id="arrow"
             d="M 11.500037,31.436501 C 11.940474,20.09759 22.043105,11.32322 32.158766,21.979434 L 37.068811,17.246167 C 37.068811,17.246167 37.088388,32 37.088388,32 L 22.160133,31.978069 C 22.160133,31.978069 26.997745,27.140456 26.997745,27.140456 C 18.528582,18.264221 13.291696,25.230495 11.500037,31.436501 z"
             style="fill:#404040;"/>
          </a>
         </g>
        </svg>
</svg>
