<?xml version="1.0" encoding="UTF-8" standalone="no"?>
<!DOCTYPE svg PUBLIC "-//W3C//DTD SVG 1.1//EN"
 "http://www.w3.org/Graphics/SVG/1.1/DTD/svg11.dtd">
<!-- Generated by graphviz version 2.43.0 (0)
 -->
<!-- Title: TractorWatchdog/display.cpp Pages: 1 -->
<svg width="494pt" height="252pt"
 viewBox="0.00 0.00 493.50 252.00" xmlns="http://www.w3.org/2000/svg" xmlns:xlink="http://www.w3.org/1999/xlink">
<g id="graph0" class="graph" transform="scale(1 1) rotate(0) translate(4 248)">
<title>TractorWatchdog/display.cpp</title>
<polygon fill="white" stroke="transparent" points="-4,4 -4,-248 489.5,-248 489.5,4 -4,4"/>
<!-- Node1 -->
<g id="node1" class="node">
<title>Node1</title>
<g id="a_node1"><a xlink:title="Header file for the display classes.">
<polygon fill="#bfbfbf" stroke="black" points="125,-224.5 125,-243.5 280,-243.5 280,-224.5 125,-224.5"/>
<text text-anchor="middle" x="202.5" y="-231.5" font-family="Helvetica,sans-Serif" font-size="10.00">TractorWatchdog/display.cpp</text>
</a>
</g>
</g>
<!-- Node2 -->
<g id="node2" class="node">
<title>Node2</title>
<g id="a_node2"><a xlink:href="display_8h.html" target="_top" xlink:title="Header file for the display classes.">
<polygon fill="white" stroke="black" points="173,-168.5 173,-187.5 232,-187.5 232,-168.5 173,-168.5"/>
<text text-anchor="middle" x="202.5" y="-175.5" font-family="Helvetica,sans-Serif" font-size="10.00">display.h</text>
</a>
</g>
</g>
<!-- Node1&#45;&gt;Node2 -->
<g id="edge1" class="edge">
<title>Node1&#45;&gt;Node2</title>
<path fill="none" stroke="midnightblue" d="M202.5,-224.08C202.5,-217.01 202.5,-206.86 202.5,-197.99"/>
<polygon fill="midnightblue" stroke="midnightblue" points="206,-197.75 202.5,-187.75 199,-197.75 206,-197.75"/>
</g>
<!-- Node3 -->
<g id="node3" class="node">
<title>Node3</title>
<g id="a_node3"><a xlink:href="defines_8h.html" target="_top" xlink:title="Pin and other definitions.">
<polygon fill="white" stroke="black" points="172,-56.5 172,-75.5 233,-75.5 233,-56.5 172,-56.5"/>
<text text-anchor="middle" x="202.5" y="-63.5" font-family="Helvetica,sans-Serif" font-size="10.00">defines.h</text>
</a>
</g>
</g>
<!-- Node2&#45;&gt;Node3 -->
<g id="edge2" class="edge">
<title>Node2&#45;&gt;Node3</title>
<path fill="none" stroke="midnightblue" d="M200.76,-168.42C199.03,-159.4 196.49,-144.77 195.5,-132 194.3,-116.42 196.41,-98.8 198.62,-85.84"/>
<polygon fill="midnightblue" stroke="midnightblue" points="202.1,-86.29 200.51,-75.82 195.22,-84.99 202.1,-86.29"/>
</g>
<!-- Node9 -->
<g id="node9" class="node">
<title>Node9</title>
<g id="a_node9"><a xlink:href="state_8h.html" target="_top" xlink:title="A class for the current system state.">
<polygon fill="white" stroke="black" points="204.5,-112.5 204.5,-131.5 254.5,-131.5 254.5,-112.5 204.5,-112.5"/>
<text text-anchor="middle" x="229.5" y="-119.5" font-family="Helvetica,sans-Serif" font-size="10.00">state.h</text>
</a>
</g>
</g>
<!-- Node2&#45;&gt;Node9 -->
<g id="edge8" class="edge">
<title>Node2&#45;&gt;Node9</title>
<path fill="none" stroke="midnightblue" d="M206.96,-168.08C210.65,-160.69 216.02,-149.95 220.59,-140.81"/>
<polygon fill="midnightblue" stroke="midnightblue" points="223.78,-142.26 225.12,-131.75 217.52,-139.13 223.78,-142.26"/>
</g>
<!-- Node4 -->
<g id="node4" class="node">
<title>Node4</title>
<g id="a_node4"><a xlink:title=" ">
<polygon fill="white" stroke="#bfbfbf" points="0,-0.5 0,-19.5 63,-19.5 63,-0.5 0,-0.5"/>
<text text-anchor="middle" x="31.5" y="-7.5" font-family="Helvetica,sans-Serif" font-size="10.00">Arduino.h</text>
</a>
</g>
</g>
<!-- Node3&#45;&gt;Node4 -->
<g id="edge3" class="edge">
<title>Node3&#45;&gt;Node4</title>
<path fill="none" stroke="midnightblue" d="M175.4,-56.44C146.51,-47.32 100.58,-32.81 68.39,-22.65"/>
<polygon fill="midnightblue" stroke="midnightblue" points="69.06,-19.19 58.47,-19.52 66.95,-25.87 69.06,-19.19"/>
</g>
<!-- Node5 -->
<g id="node5" class="node">
<title>Node5</title>
<g id="a_node5"><a xlink:title=" ">
<polygon fill="white" stroke="#bfbfbf" points="81.5,-0.5 81.5,-19.5 129.5,-19.5 129.5,-0.5 81.5,-0.5"/>
<text text-anchor="middle" x="105.5" y="-7.5" font-family="Helvetica,sans-Serif" font-size="10.00">Wire.h</text>
</a>
</g>
</g>
<!-- Node3&#45;&gt;Node5 -->
<g id="edge4" class="edge">
<title>Node3&#45;&gt;Node5</title>
<path fill="none" stroke="midnightblue" d="M186.92,-56.32C171.5,-47.74 147.69,-34.49 129.79,-24.52"/>
<polygon fill="midnightblue" stroke="midnightblue" points="131.49,-21.46 121.05,-19.65 128.08,-27.58 131.49,-21.46"/>
</g>
<!-- Node6 -->
<g id="node6" class="node">
<title>Node6</title>
<g id="a_node6"><a xlink:title=" ">
<polygon fill="white" stroke="#bfbfbf" points="147.5,-0.5 147.5,-19.5 257.5,-19.5 257.5,-0.5 147.5,-0.5"/>
<text text-anchor="middle" x="202.5" y="-7.5" font-family="Helvetica,sans-Serif" font-size="10.00">LiquidCrystal_I2C.h</text>
</a>
</g>
</g>
<!-- Node3&#45;&gt;Node6 -->
<g id="edge5" class="edge">
<title>Node3&#45;&gt;Node6</title>
<path fill="none" stroke="midnightblue" d="M202.5,-56.08C202.5,-49.01 202.5,-38.86 202.5,-29.99"/>
<polygon fill="midnightblue" stroke="midnightblue" points="206,-29.75 202.5,-19.75 199,-29.75 206,-29.75"/>
</g>
<!-- Node7 -->
<g id="node7" class="node">
<title>Node7</title>
<g id="a_node7"><a xlink:title=" ">
<polygon fill="white" stroke="#bfbfbf" points="275.5,-0.5 275.5,-19.5 349.5,-19.5 349.5,-0.5 275.5,-0.5"/>
<text text-anchor="middle" x="312.5" y="-7.5" font-family="Helvetica,sans-Serif" font-size="10.00">LCDGraph.h</text>
</a>
</g>
</g>
<!-- Node3&#45;&gt;Node7 -->
<g id="edge6" class="edge">
<title>Node3&#45;&gt;Node7</title>
<path fill="none" stroke="midnightblue" d="M220.17,-56.32C237.89,-47.62 265.4,-34.12 285.79,-24.11"/>
<polygon fill="midnightblue" stroke="midnightblue" points="287.44,-27.2 294.87,-19.65 284.35,-20.92 287.44,-27.2"/>
</g>
<!-- Node8 -->
<g id="node8" class="node">
<title>Node8</title>
<g id="a_node8"><a xlink:title=" ">
<polygon fill="white" stroke="#bfbfbf" points="367.5,-0.5 367.5,-19.5 485.5,-19.5 485.5,-0.5 367.5,-0.5"/>
<text text-anchor="middle" x="426.5" y="-7.5" font-family="Helvetica,sans-Serif" font-size="10.00">EEPROMWearLevel.h</text>
</a>
</g>
</g>
<!-- Node3&#45;&gt;Node8 -->
<g id="edge7" class="edge">
<title>Node3&#45;&gt;Node8</title>
<path fill="none" stroke="midnightblue" d="M233.18,-57.6C271.42,-48.39 337.1,-32.55 381.15,-21.93"/>
<polygon fill="midnightblue" stroke="midnightblue" points="382.13,-25.3 391.03,-19.55 380.49,-18.49 382.13,-25.3"/>
</g>
<!-- Node9&#45;&gt;Node3 -->
<g id="edge9" class="edge">
<title>Node9&#45;&gt;Node3</title>
<path fill="none" stroke="midnightblue" d="M225.04,-112.08C221.35,-104.69 215.98,-93.95 211.41,-84.81"/>
<polygon fill="midnightblue" stroke="midnightblue" points="214.48,-83.13 206.88,-75.75 208.22,-86.26 214.48,-83.13"/>
</g>
</g>
</svg>
