<?xml version="1.0" encoding="UTF-8" standalone="no"?>
<!DOCTYPE svg PUBLIC "-//W3C//DTD SVG 1.1//EN"
 "http://www.w3.org/Graphics/SVG/1.1/DTD/svg11.dtd">
<!-- Generated by graphviz version 2.43.0 (0)
 -->
<!-- Title: Graphical Class Hierarchy Pages: 1 -->
<svg width="205pt" height="180pt"
 viewBox="0.00 0.00 205.00 180.00" xmlns="http://www.w3.org/2000/svg" xmlns:xlink="http://www.w3.org/1999/xlink">
<g id="graph0" class="graph" transform="scale(1 1) rotate(0) translate(4 176)">
<title>Graphical Class Hierarchy</title>
<polygon fill="white" stroke="transparent" points="-4,4 -4,-176 201,-176 201,4 -4,4"/>
<!-- Node0 -->
<g id="node1" class="node">
<title>Node0</title>
<g id="a_node1"><a xlink:href="class_sensor.html" target="_top" xlink:title="Base class for all sensors.">
<polygon fill="white" stroke="black" points="0,-76.5 0,-95.5 50,-95.5 50,-76.5 0,-76.5"/>
<text text-anchor="middle" x="25" y="-83.5" font-family="Helvetica,sans-Serif" font-size="10.00">Sensor</text>
</a>
</g>
</g>
<!-- Node1 -->
<g id="node2" class="node">
<title>Node1</title>
<g id="a_node2"><a xlink:href="class_sensor_battery.html" target="_top" xlink:title="Class for measuring the battery voltage.">
<polygon fill="white" stroke="black" points="98.5,-152.5 98.5,-171.5 184.5,-171.5 184.5,-152.5 98.5,-152.5"/>
<text text-anchor="middle" x="141.5" y="-159.5" font-family="Helvetica,sans-Serif" font-size="10.00">SensorBattery</text>
</a>
</g>
</g>
<!-- Node0&#45;&gt;Node1 -->
<g id="edge1" class="edge">
<title>Node0&#45;&gt;Node1</title>
<path fill="none" stroke="midnightblue" d="M40.56,-103.33C51.85,-115.83 68.49,-132.32 86,-143 92.16,-146.76 99.17,-149.9 106.05,-152.48"/>
<polygon fill="midnightblue" stroke="midnightblue" points="43.18,-101.01 33.95,-95.79 37.91,-105.62 43.18,-101.01"/>
</g>
<!-- Node2 -->
<g id="node3" class="node">
<title>Node2</title>
<g id="a_node3"><a xlink:href="class_sensor_oil.html" target="_top" xlink:title="Measures whether the oil pressure switch is tripped.">
<polygon fill="white" stroke="black" points="110,-114.5 110,-133.5 173,-133.5 173,-114.5 110,-114.5"/>
<text text-anchor="middle" x="141.5" y="-121.5" font-family="Helvetica,sans-Serif" font-size="10.00">SensorOil</text>
</a>
</g>
</g>
<!-- Node0&#45;&gt;Node2 -->
<g id="edge2" class="edge">
<title>Node0&#45;&gt;Node2</title>
<path fill="none" stroke="midnightblue" d="M59.8,-97.22C76.28,-102.69 95.9,-109.2 111.66,-114.43"/>
<polygon fill="midnightblue" stroke="midnightblue" points="60.6,-93.79 50,-93.97 58.39,-100.44 60.6,-93.79"/>
</g>
<!-- Node3 -->
<g id="node4" class="node">
<title>Node3</title>
<g id="a_node4"><a xlink:href="class_sensor_r_p_m.html" target="_top" xlink:title="Class for logging RPM.">
<polygon fill="white" stroke="black" points="106,-76.5 106,-95.5 177,-95.5 177,-76.5 106,-76.5"/>
<text text-anchor="middle" x="141.5" y="-83.5" font-family="Helvetica,sans-Serif" font-size="10.00">SensorRPM</text>
</a>
</g>
</g>
<!-- Node0&#45;&gt;Node3 -->
<g id="edge3" class="edge">
<title>Node0&#45;&gt;Node3</title>
<path fill="none" stroke="midnightblue" d="M60.01,-86C74.41,-86 91.17,-86 105.66,-86"/>
<polygon fill="midnightblue" stroke="midnightblue" points="60,-82.5 50,-86 60,-89.5 60,-82.5"/>
</g>
<!-- Node4 -->
<g id="node5" class="node">
<title>Node4</title>
<g id="a_node5"><a xlink:href="class_sensor_temperature.html" target="_top" xlink:title="Class for measuring the temperature.">
<polygon fill="white" stroke="black" points="86,-38.5 86,-57.5 197,-57.5 197,-38.5 86,-38.5"/>
<text text-anchor="middle" x="141.5" y="-45.5" font-family="Helvetica,sans-Serif" font-size="10.00">SensorTemperature</text>
</a>
</g>
</g>
<!-- Node0&#45;&gt;Node4 -->
<g id="edge4" class="edge">
<title>Node0&#45;&gt;Node4</title>
<path fill="none" stroke="midnightblue" d="M59.8,-74.78C76.28,-69.31 95.9,-62.8 111.66,-57.57"/>
<polygon fill="midnightblue" stroke="midnightblue" points="58.39,-71.56 50,-78.03 60.6,-78.21 58.39,-71.56"/>
</g>
<!-- Node5 -->
<g id="node6" class="node">
<title>Node5</title>
<g id="a_node6"><a xlink:href="class_sensor_time.html" target="_top" xlink:title="Keeps track of total engine hours and trip engine hours.">
<polygon fill="white" stroke="black" points="104.5,-0.5 104.5,-19.5 178.5,-19.5 178.5,-0.5 104.5,-0.5"/>
<text text-anchor="middle" x="141.5" y="-7.5" font-family="Helvetica,sans-Serif" font-size="10.00">SensorTime</text>
</a>
</g>
</g>
<!-- Node0&#45;&gt;Node5 -->
<g id="edge5" class="edge">
<title>Node0&#45;&gt;Node5</title>
<path fill="none" stroke="midnightblue" d="M40.56,-68.67C51.85,-56.17 68.49,-39.68 86,-29 92.16,-25.24 99.17,-22.1 106.05,-19.52"/>
<polygon fill="midnightblue" stroke="midnightblue" points="37.91,-66.38 33.95,-76.21 43.18,-70.99 37.91,-66.38"/>
</g>
</g>
</svg>
