<?xml version="1.0" encoding="UTF-8" standalone="no"?>
<!DOCTYPE svg PUBLIC "-//W3C//DTD SVG 1.1//EN"
 "http://www.w3.org/Graphics/SVG/1.1/DTD/svg11.dtd">
<!-- Generated by graphviz version 2.43.0 (0)
 -->
<!-- Title: Graphical Class Hierarchy Pages: 1 -->
<svg width="375pt" height="180pt"
 viewBox="0.00 0.00 375.00 180.00" xmlns="http://www.w3.org/2000/svg" xmlns:xlink="http://www.w3.org/1999/xlink">
<g id="graph0" class="graph" transform="scale(1 1) rotate(0) translate(4 176)">
<title>Graphical Class Hierarchy</title>
<polygon fill="white" stroke="transparent" points="-4,4 -4,-176 371,-176 371,4 -4,4"/>
<!-- Node0 -->
<g id="node1" class="node">
<title>Node0</title>
<g id="a_node1"><a xlink:href="class_display.html" target="_top" xlink:title="Base class for each window that is displayed on the LCD.">
<polygon fill="white" stroke="black" points="0,-76.5 0,-95.5 53,-95.5 53,-76.5 0,-76.5"/>
<text text-anchor="middle" x="26.5" y="-83.5" font-family="Helvetica,sans-Serif" font-size="10.00">Display</text>
</a>
</g>
</g>
<!-- Node1 -->
<g id="node2" class="node">
<title>Node1</title>
<g id="a_node2"><a xlink:href="class_display_error.html" target="_top" xlink:title="Display that shows an error message on the screen.">
<polygon fill="white" stroke="black" points="106,-152.5 106,-171.5 183,-171.5 183,-152.5 106,-152.5"/>
<text text-anchor="middle" x="144.5" y="-159.5" font-family="Helvetica,sans-Serif" font-size="10.00">DisplayError</text>
</a>
</g>
</g>
<!-- Node0&#45;&gt;Node1 -->
<g id="edge1" class="edge">
<title>Node0&#45;&gt;Node1</title>
<path fill="none" stroke="midnightblue" d="M42.51,-103.31C54.12,-115.8 71.19,-132.29 89,-143 95.18,-146.72 102.2,-149.85 109.09,-152.43"/>
<polygon fill="midnightblue" stroke="midnightblue" points="45.01,-100.86 35.71,-95.78 39.81,-105.55 45.01,-100.86"/>
</g>
<!-- Node2 -->
<g id="node3" class="node">
<title>Node2</title>
<g id="a_node3"><a xlink:href="class_display_home.html" target="_top" xlink:title="Class for the main home screen of the display.">
<polygon fill="white" stroke="black" points="103,-114.5 103,-133.5 186,-133.5 186,-114.5 103,-114.5"/>
<text text-anchor="middle" x="144.5" y="-121.5" font-family="Helvetica,sans-Serif" font-size="10.00">DisplayHome</text>
</a>
</g>
</g>
<!-- Node0&#45;&gt;Node2 -->
<g id="edge2" class="edge">
<title>Node0&#45;&gt;Node2</title>
<path fill="none" stroke="midnightblue" d="M63.02,-97.64C79.4,-103 98.61,-109.29 114.15,-114.38"/>
<polygon fill="midnightblue" stroke="midnightblue" points="63.84,-94.22 53.24,-94.43 61.66,-100.87 63.84,-94.22"/>
</g>
<!-- Node3 -->
<g id="node4" class="node">
<title>Node3</title>
<g id="a_node4"><a xlink:href="class_display_interval_tick.html" target="_top" xlink:title="Adds an interval based tick to the display class. The interval is reset whenever the display is activ...">
<polygon fill="white" stroke="black" points="89,-76.5 89,-95.5 200,-95.5 200,-76.5 89,-76.5"/>
<text text-anchor="middle" x="144.5" y="-83.5" font-family="Helvetica,sans-Serif" font-size="10.00">DisplayIntervalTick</text>
</a>
</g>
</g>
<!-- Node0&#45;&gt;Node3 -->
<g id="edge3" class="edge">
<title>Node0&#45;&gt;Node3</title>
<path fill="none" stroke="midnightblue" d="M63.4,-86C71.47,-86 80.21,-86 88.85,-86"/>
<polygon fill="midnightblue" stroke="midnightblue" points="63.24,-82.5 53.24,-86 63.24,-89.5 63.24,-82.5"/>
</g>
<!-- Node7 -->
<g id="node8" class="node">
<title>Node7</title>
<g id="a_node8"><a xlink:href="class_display_time.html" target="_top" xlink:title="Display that shows the total and trip times.">
<polygon fill="white" stroke="black" points="105.5,-38.5 105.5,-57.5 183.5,-57.5 183.5,-38.5 105.5,-38.5"/>
<text text-anchor="middle" x="144.5" y="-45.5" font-family="Helvetica,sans-Serif" font-size="10.00">DisplayTime</text>
</a>
</g>
</g>
<!-- Node0&#45;&gt;Node7 -->
<g id="edge7" class="edge">
<title>Node0&#45;&gt;Node7</title>
<path fill="none" stroke="midnightblue" d="M63.02,-74.36C79.4,-69 98.61,-62.71 114.15,-57.62"/>
<polygon fill="midnightblue" stroke="midnightblue" points="61.66,-71.13 53.24,-77.57 63.84,-77.78 61.66,-71.13"/>
</g>
<!-- Node8 -->
<g id="node9" class="node">
<title>Node8</title>
<g id="a_node9"><a xlink:href="class_display_water_temp.html" target="_top" xlink:title="Class for the water temperature.">
<polygon fill="white" stroke="black" points="90.5,-0.5 90.5,-19.5 198.5,-19.5 198.5,-0.5 90.5,-0.5"/>
<text text-anchor="middle" x="144.5" y="-7.5" font-family="Helvetica,sans-Serif" font-size="10.00">DisplayWaterTemp</text>
</a>
</g>
</g>
<!-- Node0&#45;&gt;Node8 -->
<g id="edge8" class="edge">
<title>Node0&#45;&gt;Node8</title>
<path fill="none" stroke="midnightblue" d="M42.51,-68.69C54.12,-56.2 71.19,-39.71 89,-29 95.18,-25.28 102.2,-22.15 109.09,-19.57"/>
<polygon fill="midnightblue" stroke="midnightblue" points="39.81,-66.45 35.71,-76.22 45.01,-71.14 39.81,-66.45"/>
</g>
<!-- Node4 -->
<g id="node5" class="node">
<title>Node4</title>
<g id="a_node5"><a xlink:href="class_display_about.html" target="_top" xlink:title="A simple about page that shows more info on the unit.">
<polygon fill="white" stroke="black" points="260.5,-114.5 260.5,-133.5 342.5,-133.5 342.5,-114.5 260.5,-114.5"/>
<text text-anchor="middle" x="301.5" y="-121.5" font-family="Helvetica,sans-Serif" font-size="10.00">DisplayAbout</text>
</a>
</g>
</g>
<!-- Node3&#45;&gt;Node4 -->
<g id="edge4" class="edge">
<title>Node3&#45;&gt;Node4</title>
<path fill="none" stroke="midnightblue" d="M194.61,-98.04C216.26,-103.35 241.35,-109.5 261.67,-114.48"/>
<polygon fill="midnightblue" stroke="midnightblue" points="195.16,-94.57 184.61,-95.59 193.49,-101.37 195.16,-94.57"/>
</g>
<!-- Node5 -->
<g id="node6" class="node">
<title>Node5</title>
<g id="a_node6"><a xlink:href="class_display_error_alternating.html" target="_top" xlink:title="Alternates between display error and home regularly.">
<polygon fill="white" stroke="black" points="236,-76.5 236,-95.5 367,-95.5 367,-76.5 236,-76.5"/>
<text text-anchor="middle" x="301.5" y="-83.5" font-family="Helvetica,sans-Serif" font-size="10.00">DisplayErrorAlternating</text>
</a>
</g>
</g>
<!-- Node3&#45;&gt;Node5 -->
<g id="edge5" class="edge">
<title>Node3&#45;&gt;Node5</title>
<path fill="none" stroke="midnightblue" d="M210.36,-86C218.84,-86 227.53,-86 236,-86"/>
<polygon fill="midnightblue" stroke="midnightblue" points="210.15,-82.5 200.15,-86 210.15,-89.5 210.15,-82.5"/>
</g>
<!-- Node6 -->
<g id="node7" class="node">
<title>Node6</title>
<g id="a_node7"><a xlink:href="class_display_voltage.html" target="_top" xlink:title="Class for the water temperature.">
<polygon fill="white" stroke="black" points="256.5,-38.5 256.5,-57.5 346.5,-57.5 346.5,-38.5 256.5,-38.5"/>
<text text-anchor="middle" x="301.5" y="-45.5" font-family="Helvetica,sans-Serif" font-size="10.00">DisplayVoltage</text>
</a>
</g>
</g>
<!-- Node3&#45;&gt;Node6 -->
<g id="edge6" class="edge">
<title>Node3&#45;&gt;Node6</title>
<path fill="none" stroke="midnightblue" d="M194.61,-73.96C216.26,-68.65 241.35,-62.5 261.67,-57.52"/>
<polygon fill="midnightblue" stroke="midnightblue" points="193.49,-70.63 184.61,-76.41 195.16,-77.43 193.49,-70.63"/>
</g>
</g>
</svg>
