<?xml version="1.0" encoding="UTF-8" standalone="no"?>
<!DOCTYPE svg PUBLIC "-//W3C//DTD SVG 1.1//EN"
 "http://www.w3.org/Graphics/SVG/1.1/DTD/svg11.dtd">
<!-- Generated by graphviz version 2.43.0 (0)
 -->
<!-- Title: TractorWatchdog/motor.h Pages: 1 -->
<svg width="376pt" height="84pt"
 viewBox="0.00 0.00 375.50 84.00" xmlns="http://www.w3.org/2000/svg" xmlns:xlink="http://www.w3.org/1999/xlink">
<g id="graph0" class="graph" transform="scale(1 1) rotate(0) translate(4 80)">
<title>TractorWatchdog/motor.h</title>
<polygon fill="white" stroke="transparent" points="-4,4 -4,-80 371.5,-80 371.5,4 -4,4"/>
<!-- Node1 -->
<g id="node1" class="node">
<title>Node1</title>
<g id="a_node1"><a xlink:title="File for the validation and engine shutdown components.">
<polygon fill="#bfbfbf" stroke="black" points="101.5,-56.5 101.5,-75.5 239.5,-75.5 239.5,-56.5 101.5,-56.5"/>
<text text-anchor="middle" x="170.5" y="-63.5" font-family="Helvetica,sans-Serif" font-size="10.00">TractorWatchdog/motor.h</text>
</a>
</g>
</g>
<!-- Node2 -->
<g id="node2" class="node">
<title>Node2</title>
<g id="a_node2"><a xlink:href="motor_8cpp.html" target="_top" xlink:title="File for the validation and engine shutdown components.">
<polygon fill="white" stroke="black" points="0,-0.5 0,-19.5 149,-19.5 149,-0.5 0,-0.5"/>
<text text-anchor="middle" x="74.5" y="-7.5" font-family="Helvetica,sans-Serif" font-size="10.00">TractorWatchdog/motor.cpp</text>
</a>
</g>
</g>
<!-- Node1&#45;&gt;Node2 -->
<g id="edge1" class="edge">
<title>Node1&#45;&gt;Node2</title>
<path fill="none" stroke="midnightblue" d="M145.93,-51.18C128.26,-41.24 104.99,-28.15 89.89,-19.65"/>
<polygon fill="midnightblue" stroke="midnightblue" points="144.64,-54.47 155.08,-56.32 148.08,-48.37 144.64,-54.47"/>
</g>
<!-- Node3 -->
<g id="node3" class="node">
<title>Node3</title>
<g id="a_node3"><a xlink:href="_tractor_watchdog_8ino.html" target="_top" xlink:title="Main code for the Tractor Enginge Watchdog.">
<polygon fill="white" stroke="black" points="167.5,-0.5 167.5,-19.5 367.5,-19.5 367.5,-0.5 167.5,-0.5"/>
<text text-anchor="middle" x="267.5" y="-7.5" font-family="Helvetica,sans-Serif" font-size="10.00">TractorWatchdog/TractorWatchdog.ino</text>
</a>
</g>
</g>
<!-- Node1&#45;&gt;Node3 -->
<g id="edge2" class="edge">
<title>Node1&#45;&gt;Node3</title>
<path fill="none" stroke="midnightblue" d="M194.84,-51.45C212.74,-41.48 236.55,-28.23 251.95,-19.65"/>
<polygon fill="midnightblue" stroke="midnightblue" points="193.12,-48.4 186.08,-56.32 196.52,-54.52 193.12,-48.4"/>
</g>
</g>
</svg>
