<?xml version="1.0" encoding="UTF-8" standalone="no"?>
<!DOCTYPE svg PUBLIC "-//W3C//DTD SVG 1.1//EN"
 "http://www.w3.org/Graphics/SVG/1.1/DTD/svg11.dtd">
<!-- Generated by graphviz version 2.43.0 (0)
 -->
<!-- Title: TractorWatchdog/sensors.h Pages: 1 -->
<svg width="384pt" height="84pt"
 viewBox="0.00 0.00 384.00 84.00" xmlns="http://www.w3.org/2000/svg" xmlns:xlink="http://www.w3.org/1999/xlink">
<g id="graph0" class="graph" transform="scale(1 1) rotate(0) translate(4 80)">
<title>TractorWatchdog/sensors.h</title>
<polygon fill="white" stroke="transparent" points="-4,4 -4,-80 380,-80 380,4 -4,4"/>
<!-- Node1 -->
<g id="node1" class="node">
<title>Node1</title>
<g id="a_node1"><a xlink:title="File that contains code for sensors.">
<polygon fill="#bfbfbf" stroke="black" points="103.5,-56.5 103.5,-75.5 250.5,-75.5 250.5,-56.5 103.5,-56.5"/>
<text text-anchor="middle" x="177" y="-63.5" font-family="Helvetica,sans-Serif" font-size="10.00">TractorWatchdog/sensors.h</text>
</a>
</g>
</g>
<!-- Node2 -->
<g id="node2" class="node">
<title>Node2</title>
<g id="a_node2"><a xlink:title=" ">
<polygon fill="white" stroke="#bfbfbf" points="0,-0.5 0,-19.5 158,-19.5 158,-0.5 0,-0.5"/>
<text text-anchor="middle" x="79" y="-7.5" font-family="Helvetica,sans-Serif" font-size="10.00">TractorWatchdog/sensors.cpp</text>
</a>
</g>
</g>
<!-- Node1&#45;&gt;Node2 -->
<g id="edge1" class="edge">
<title>Node1&#45;&gt;Node2</title>
<path fill="none" stroke="midnightblue" d="M152.41,-51.45C134.32,-41.48 110.27,-28.23 94.71,-19.65"/>
<polygon fill="midnightblue" stroke="midnightblue" points="150.81,-54.56 161.25,-56.32 154.19,-48.43 150.81,-54.56"/>
</g>
<!-- Node3 -->
<g id="node3" class="node">
<title>Node3</title>
<g id="a_node3"><a xlink:href="_tractor_watchdog_8ino.html" target="_top" xlink:title="Main code for the Tractor Enginge Watchdog.">
<polygon fill="white" stroke="black" points="176,-0.5 176,-19.5 376,-19.5 376,-0.5 176,-0.5"/>
<text text-anchor="middle" x="276" y="-7.5" font-family="Helvetica,sans-Serif" font-size="10.00">TractorWatchdog/TractorWatchdog.ino</text>
</a>
</g>
</g>
<!-- Node1&#45;&gt;Node3 -->
<g id="edge2" class="edge">
<title>Node1&#45;&gt;Node3</title>
<path fill="none" stroke="midnightblue" d="M201.84,-51.45C220.11,-41.48 244.42,-28.23 260.13,-19.65"/>
<polygon fill="midnightblue" stroke="midnightblue" points="200.01,-48.46 192.91,-56.32 203.36,-54.61 200.01,-48.46"/>
</g>
</g>
</svg>
