<?xml version="1.0" encoding="UTF-8" standalone="no"?>
<!DOCTYPE svg PUBLIC "-//W3C//DTD SVG 1.1//EN"
 "http://www.w3.org/Graphics/SVG/1.1/DTD/svg11.dtd">
<!-- Generated by graphviz version 2.43.0 (0)
 -->
<!-- Title: TractorWatchdog/state.h Pages: 1 -->
<svg width="601pt" height="140pt"
 viewBox="0.00 0.00 600.50 140.00" xmlns="http://www.w3.org/2000/svg" xmlns:xlink="http://www.w3.org/1999/xlink">
<g id="graph0" class="graph" transform="scale(1 1) rotate(0) translate(4 136)">
<title>TractorWatchdog/state.h</title>
<polygon fill="white" stroke="transparent" points="-4,4 -4,-136 596.5,-136 596.5,4 -4,4"/>
<!-- Node1 -->
<g id="node1" class="node">
<title>Node1</title>
<g id="a_node1"><a xlink:title="A class for the current system state.">
<polygon fill="#bfbfbf" stroke="black" points="287.5,-112.5 287.5,-131.5 421.5,-131.5 421.5,-112.5 287.5,-112.5"/>
<text text-anchor="middle" x="354.5" y="-119.5" font-family="Helvetica,sans-Serif" font-size="10.00">TractorWatchdog/state.h</text>
</a>
</g>
</g>
<!-- Node2 -->
<g id="node2" class="node">
<title>Node2</title>
<g id="a_node2"><a xlink:href="display_8h.html" target="_top" xlink:title="Header file for the display classes.">
<polygon fill="white" stroke="black" points="120,-56.5 120,-75.5 263,-75.5 263,-56.5 120,-56.5"/>
<text text-anchor="middle" x="191.5" y="-63.5" font-family="Helvetica,sans-Serif" font-size="10.00">TractorWatchdog/display.h</text>
</a>
</g>
</g>
<!-- Node1&#45;&gt;Node2 -->
<g id="edge1" class="edge">
<title>Node1&#45;&gt;Node2</title>
<path fill="none" stroke="midnightblue" d="M318.8,-109.17C288.1,-99 244.58,-84.59 217.21,-75.52"/>
<polygon fill="midnightblue" stroke="midnightblue" points="318.08,-112.62 328.67,-112.44 320.28,-105.98 318.08,-112.62"/>
</g>
<!-- Node5 -->
<g id="node5" class="node">
<title>Node5</title>
<g id="a_node5"><a xlink:href="sensors_8h.html" target="_top" xlink:title="File that contains code for sensors.">
<polygon fill="white" stroke="black" points="281,-56.5 281,-75.5 428,-75.5 428,-56.5 281,-56.5"/>
<text text-anchor="middle" x="354.5" y="-63.5" font-family="Helvetica,sans-Serif" font-size="10.00">TractorWatchdog/sensors.h</text>
</a>
</g>
</g>
<!-- Node1&#45;&gt;Node5 -->
<g id="edge4" class="edge">
<title>Node1&#45;&gt;Node5</title>
<path fill="none" stroke="midnightblue" d="M354.5,-101.8C354.5,-92.91 354.5,-82.78 354.5,-75.75"/>
<polygon fill="midnightblue" stroke="midnightblue" points="351,-102.08 354.5,-112.08 358,-102.08 351,-102.08"/>
</g>
<!-- Node7 -->
<g id="node7" class="node">
<title>Node7</title>
<g id="a_node7"><a xlink:href="state_8cpp.html" target="_top" xlink:title="Cpntains code realting to the system state.">
<polygon fill="white" stroke="black" points="446.5,-56.5 446.5,-75.5 592.5,-75.5 592.5,-56.5 446.5,-56.5"/>
<text text-anchor="middle" x="519.5" y="-63.5" font-family="Helvetica,sans-Serif" font-size="10.00">TractorWatchdog/state.cpp</text>
</a>
</g>
</g>
<!-- Node1&#45;&gt;Node7 -->
<g id="edge7" class="edge">
<title>Node1&#45;&gt;Node7</title>
<path fill="none" stroke="midnightblue" d="M390.24,-109.3C421.33,-99.13 465.65,-84.62 493.48,-75.52"/>
<polygon fill="midnightblue" stroke="midnightblue" points="389.06,-106.01 380.64,-112.44 391.24,-112.66 389.06,-106.01"/>
</g>
<!-- Node3 -->
<g id="node3" class="node">
<title>Node3</title>
<g id="a_node3"><a xlink:href="display_8cpp.html" target="_top" xlink:title="Header file for the display classes.">
<polygon fill="white" stroke="black" points="0,-0.5 0,-19.5 155,-19.5 155,-0.5 0,-0.5"/>
<text text-anchor="middle" x="77.5" y="-7.5" font-family="Helvetica,sans-Serif" font-size="10.00">TractorWatchdog/display.cpp</text>
</a>
</g>
</g>
<!-- Node2&#45;&gt;Node3 -->
<g id="edge2" class="edge">
<title>Node2&#45;&gt;Node3</title>
<path fill="none" stroke="midnightblue" d="M164.26,-52.1C142.96,-42.01 113.96,-28.27 95.48,-19.52"/>
<polygon fill="midnightblue" stroke="midnightblue" points="162.9,-55.33 173.44,-56.44 165.9,-49 162.9,-55.33"/>
</g>
<!-- Node4 -->
<g id="node4" class="node">
<title>Node4</title>
<g id="a_node4"><a xlink:href="_tractor_watchdog_8ino.html" target="_top" xlink:title="Main code for the Tractor Enginge Watchdog.">
<polygon fill="white" stroke="black" points="173.5,-0.5 173.5,-19.5 373.5,-19.5 373.5,-0.5 173.5,-0.5"/>
<text text-anchor="middle" x="273.5" y="-7.5" font-family="Helvetica,sans-Serif" font-size="10.00">TractorWatchdog/TractorWatchdog.ino</text>
</a>
</g>
</g>
<!-- Node2&#45;&gt;Node4 -->
<g id="edge3" class="edge">
<title>Node2&#45;&gt;Node4</title>
<path fill="none" stroke="midnightblue" d="M213.33,-50.62C228.31,-40.76 247.7,-27.99 260.36,-19.65"/>
<polygon fill="midnightblue" stroke="midnightblue" points="211.1,-47.9 204.67,-56.32 214.95,-53.75 211.1,-47.9"/>
</g>
<!-- Node5&#45;&gt;Node4 -->
<g id="edge6" class="edge">
<title>Node5&#45;&gt;Node4</title>
<path fill="none" stroke="midnightblue" d="M332.93,-50.62C318.14,-40.76 298.99,-27.99 286.48,-19.65"/>
<polygon fill="midnightblue" stroke="midnightblue" points="331.22,-53.69 341.49,-56.32 335.11,-47.86 331.22,-53.69"/>
</g>
<!-- Node6 -->
<g id="node6" class="node">
<title>Node6</title>
<g id="a_node6"><a xlink:title=" ">
<polygon fill="white" stroke="#bfbfbf" points="391.5,-0.5 391.5,-19.5 549.5,-19.5 549.5,-0.5 391.5,-0.5"/>
<text text-anchor="middle" x="470.5" y="-7.5" font-family="Helvetica,sans-Serif" font-size="10.00">TractorWatchdog/sensors.cpp</text>
</a>
</g>
</g>
<!-- Node5&#45;&gt;Node6 -->
<g id="edge5" class="edge">
<title>Node5&#45;&gt;Node6</title>
<path fill="none" stroke="midnightblue" d="M382.22,-52.1C403.89,-42.01 433.4,-28.27 452.21,-19.52"/>
<polygon fill="midnightblue" stroke="midnightblue" points="380.47,-49.05 372.88,-56.44 383.42,-55.4 380.47,-49.05"/>
</g>
</g>
</svg>
